<svg width="201" height="251" viewBox="0 0 201 251" fill="none" xmlns="http://www.w3.org/2000/svg">
<path d="M200.433 232.667C200.372 232.886 200.275 233.098 200.252 233.32C199.733 238.346 197.65 242.639 194.056 246.194C192.302 247.925 190.264 249.196 187.762 249.605C186.56 249.801 185.367 249.756 184.197 249.457C180.781 248.591 177.372 247.703 173.963 246.821C161.055 243.482 148.277 239.698 135.557 235.714C127.915 233.32 120.29 230.869 112.664 228.417C112 228.204 111.436 228.188 110.762 228.443C93.9167 234.817 76.9417 240.84 59.7431 246.217C53.6829 248.112 52.5875 248.237 46.4009 249.675C44.5893 250.097 42.7583 250.493 40.9143 250.695C39.9972 250.795 39.0088 250.512 38.0884 250.268C33.4606 249.045 30.0417 245.139 29.387 240.428C28.8069 236.242 29.6236 232.326 31.7981 228.723C32.4722 227.603 33.3569 226.576 34.2903 225.65C35.6449 224.311 37.3236 223.533 39.2648 223.372C39.6894 223.336 40.1171 223.217 40.5157 223.063C48.2708 220.09 51.0384 218.803 58.787 215.817C59.0495 215.717 59.2958 215.569 59.6912 215.373C59.3347 215.221 59.1403 215.122 58.9361 215.051C50.7403 212.281 42.7875 208.915 34.8347 205.537C26.6389 202.055 18.3718 198.747 9.90046 195.967C8.19259 195.408 6.52685 194.735 4.99074 193.792C2.94907 192.544 1.34491 190.929 0.580093 188.606C0.405093 188.078 0.194444 187.563 0 187.039C0 186.244 0 185.452 0 184.658C0.126389 184.355 0.294907 184.066 0.369444 183.753C1.64954 178.348 4.1287 173.541 7.69676 169.277C10.4514 165.986 13.9579 164.876 18.1546 165.722C20.6824 166.23 23.087 167.106 25.4366 168.113C29.1926 169.725 32.9065 171.427 36.6431 173.087C37.2167 173.341 37.8032 173.57 38.4417 173.834C38.5681 173.605 38.6977 173.422 38.7722 173.219C39.5532 171.015 40.6843 169.001 42.1394 167.173C43.3352 165.671 44.5407 164.165 45.8435 162.755C51.813 156.288 55.3162 148.621 57.1731 140.133C58.0514 136.123 58.5472 132.06 58.9847 127.983C59.4125 123.977 59.6491 119.945 60.5565 116.001C61.2435 113.015 62.2384 110.145 64.0468 107.632C64.7954 106.592 65.6412 105.576 66.6069 104.742C68.5028 103.104 70.5153 103.394 72.0352 105.392C73.2278 106.959 73.8338 108.764 74.1319 110.685C74.6148 113.787 74.1255 116.815 73.4222 119.82C72.7287 122.777 71.9282 125.711 71.238 128.671C70.8458 130.354 70.7194 132.079 71.0532 133.791C71.7727 137.465 74.6505 139.267 78.3028 138.353C80.6588 137.764 82.5028 136.407 83.9579 134.508C85.5815 132.381 86.4792 129.949 86.9491 127.343C87.5454 124.022 87.4417 120.689 87.0495 117.365C86.625 113.79 86.0481 110.231 85.6301 106.657C85.1634 102.667 85.1148 98.6803 86.1259 94.7387C86.9361 91.5823 88.4593 88.8505 90.8639 86.6208C91.7907 85.7649 92.7111 84.8994 93.6898 84.1046C97.6694 80.8677 99.9833 76.6559 101.127 71.7458C102.171 67.2605 102.232 62.7108 102.028 58.1386C101.844 53.9461 101.626 49.7536 101.578 45.5578C101.536 41.8415 102.087 38.1831 103.201 34.618C104.874 29.2736 108.114 24.9974 112.334 21.3841C116.245 18.0346 117.036 18.012 121.622 15.7082C123.819 14.6046 128.275 13.9965 130.511 12.9765C131.26 12.6354 132.067 12.3684 132.874 12.2107C135.136 11.7699 136.831 13.2661 136.72 15.5345C136.656 16.8666 136.144 18.0506 135.372 19.106C134.769 19.9297 134.079 20.7019 133.366 21.4388C130.913 23.9646 128.531 26.5451 126.606 29.5085C124.84 32.2274 124.833 32.1115 124.402 35.3581C123.806 39.8273 124.934 43.8364 127.954 47.2246C130.816 50.4325 135.025 51.253 139.076 49.509C140.94 48.7079 142.505 47.4948 143.889 46.034C146.472 43.3023 148.137 40.0525 149.288 36.5261C150.263 33.5434 150.646 32.4204 151.605 29.4313C152.007 28.1764 152.431 27.5554 153.002 26.3681C153.452 25.4254 154.087 24.5534 154.742 23.7297C155.368 22.9414 156.236 22.4266 157.218 22.1306C158.994 21.59 160.378 22.2206 160.919 23.9678C161.23 24.9685 161.392 25.3868 161.486 26.4325C161.843 30.4159 162.581 32.5137 162.439 36.5196C162.238 42.115 161.476 47.6396 160.352 53.1192C160.125 54.2196 159.882 55.32 159.762 56.4333C159.678 57.212 159.691 58.0228 159.824 58.795C160.151 60.6934 161.47 61.6297 163.405 61.4045C164.195 61.3112 164.973 61.0892 165.767 61.0152C166.723 60.9251 167.699 60.8189 168.645 60.9218C170.288 61.102 171.555 62.0062 172.495 63.3383C174.089 65.5938 174.494 68.126 174.144 70.8031C173.914 72.5567 173.305 74.1976 172.55 75.7903C171.827 77.3155 171.066 78.8213 170.359 80.3529C169.679 81.8298 169.121 83.3517 168.988 84.9894C168.953 85.4142 168.962 85.8485 169.024 86.27C169.225 87.6375 170.158 88.3969 171.542 88.2103C172.323 88.1041 173.12 87.8917 173.827 87.5506C175.379 86.8009 176.87 85.9193 178.403 85.1246C179.845 84.3749 181.268 83.5608 182.771 82.9591C188.919 80.5009 193.061 85.1503 193.819 89.2077C194.308 91.8333 194.039 94.4299 193.359 96.9621C191.437 104.096 188.938 111.023 185.416 117.551C183.154 121.744 180.337 125.531 176.974 128.929C176.05 129.862 175.246 130.94 174.53 132.044C173.888 133.038 173.704 134.183 174.025 135.38C174.559 137.369 176.322 138.186 178.114 137.147C178.996 136.635 179.764 135.924 180.555 135.274C181.556 134.453 182.486 133.543 183.523 132.774C185.523 131.291 187.759 130.962 190.15 131.67C192.225 132.285 193.932 133.446 195.264 135.129C197.079 137.417 197.708 140.068 197.669 142.929C197.633 145.541 197.011 148.032 196.107 150.461C193.45 157.601 189.318 163.83 184.145 169.403C183.559 170.034 182.966 170.658 182.379 171.288C182.36 171.308 182.363 171.35 182.331 171.482C182.551 171.469 182.752 171.459 182.953 171.44C185.497 171.192 187.96 171.475 190.193 172.778C193.894 174.937 196.826 177.859 198.725 181.71C199.16 182.589 199.425 183.564 199.659 184.519C200.022 185.999 199.75 187.444 198.939 188.712C198.32 189.677 197.578 190.597 196.755 191.395C194.743 193.348 192.406 194.902 189.907 196.157C184.149 199.05 178.364 201.894 172.55 204.668C169.283 206.225 165.932 207.609 162.62 209.073C162.325 209.205 162.037 209.353 161.557 209.584C162.912 209.903 164.069 210.17 165.223 210.443C172.994 212.281 180.697 214.35 188.167 217.191C190.241 217.979 192.234 218.992 194.237 219.955C194.794 220.222 195.362 220.592 195.75 221.058C196.898 222.426 198.022 223.822 199.037 225.289C199.775 226.358 200.164 227.6 200.245 228.919C200.262 229.173 200.368 229.424 200.437 229.678C200.433 230.685 200.433 231.676 200.433 232.667ZM39.5306 176.82C39.1644 179.194 39.2097 181.562 39.6505 183.921C40.5352 188.676 42.6935 192.837 45.7009 196.598C48.6014 200.224 52.0755 203.246 55.7505 206.061C56.431 206.582 57.144 207.023 57.9542 207.371C62.3357 209.246 66.9018 210.083 71.6593 210.077C73.1338 210.073 74.2972 209.359 75.6324 208.809C75.1949 208.246 74.8255 207.782 74.469 207.306C67.0153 197.325 63.4051 186.176 64.1634 173.718C64.3125 171.26 64.8764 168.882 65.9491 166.645C67.3782 163.663 69.5528 161.427 72.6833 160.204C76.8282 158.582 80.9537 159.734 83.6143 163.277C84.2074 164.065 84.7486 164.927 85.1278 165.831C85.8569 167.566 86.463 169.352 87.1079 171.118C87.8435 173.135 88.5305 175.169 89.3116 177.17C89.5968 177.901 90.0245 178.596 90.5009 179.223C91.4278 180.443 92.6171 180.6 93.7806 179.596C94.4708 179.001 95.0963 178.267 95.5565 177.482C96.2921 176.231 96.9208 174.912 97.5042 173.579C99.8116 168.328 101.403 162.836 102.929 157.324C104.575 151.372 106.16 145.397 107.959 139.486C109.667 133.874 112.016 128.511 115.108 123.491C115.999 122.046 117.036 120.714 118.251 119.527C121.709 116.149 125.712 113.575 130.151 111.66C131.963 110.878 133.856 110.383 135.823 110.164C137.913 109.932 139.841 110.328 141.633 111.473C144.096 113.047 145.519 115.309 146.258 118.06C146.819 120.145 147.026 122.281 147.143 124.431C147.395 129.167 147.156 133.878 146.345 138.553C145.888 141.188 145.383 143.817 144.971 146.458C144.735 147.971 144.774 149.496 145.279 150.969C145.921 152.829 147.292 153.775 149.256 153.524C150.328 153.386 151.378 153.003 152.406 152.636C153.53 152.234 154.609 151.709 155.721 151.269C156.849 150.821 158.022 150.625 159.24 150.741C161.399 150.947 163.064 152.591 163.285 154.731C163.427 156.108 163.184 157.437 162.766 158.733C162.27 160.275 161.674 161.784 161.204 163.331C160.909 164.306 160.669 165.317 160.569 166.324C160.384 168.148 161.35 169.467 163.136 169.937C163.742 170.098 164.38 170.159 165.009 170.201C166.305 170.285 167.608 170.265 168.898 170.397C171.853 170.7 173.658 172.949 173.227 175.719C173.163 176.137 173.026 176.546 172.926 176.961C172.965 177.009 173.007 177.058 173.046 177.103C173.668 176.617 174.517 176.25 174.867 175.613C175.473 174.509 176.497 174.014 177.418 173.338C178.004 172.907 178.652 172.534 179.155 172.025C181.135 170.021 183.17 168.055 185.001 165.922C189.22 160.999 192.568 155.542 194.73 149.415C195.55 147.095 196.113 144.718 196.036 142.237C195.968 140.042 195.439 137.986 194.043 136.223C193.122 135.058 191.994 134.151 190.62 133.562C188.611 132.7 186.634 132.777 184.81 133.98C183.737 134.688 182.804 135.609 181.789 136.407C180.801 137.182 179.861 138.067 178.766 138.652C176.053 140.097 173.234 138.781 172.459 135.824C172.015 134.129 172.365 132.552 173.195 131.049C173.956 129.672 175.016 128.527 176.108 127.413C179.641 123.803 182.509 119.73 184.781 115.238C187.762 109.34 189.904 103.124 191.781 96.8141C192.319 95.0026 192.584 93.1332 192.451 91.2284C192.325 89.4426 191.8 87.7855 190.698 86.3505C189.211 84.4199 187.256 83.5673 184.829 84.066C183.896 84.259 182.969 84.5808 182.104 84.983C180.992 85.501 179.949 86.1574 178.876 86.7591C177.716 87.4059 176.591 88.1298 175.389 88.68C174.371 89.1434 173.282 89.5134 172.184 89.7354C169.779 90.2213 167.903 88.9085 167.41 86.5242C167.128 85.1503 167.349 83.8022 167.799 82.5248C168.366 80.9095 169.095 79.3458 169.769 77.7659C170.547 75.9448 171.432 74.1622 172.113 72.3057C172.877 70.2271 172.842 68.0906 172.061 65.9928C171.014 63.1838 169.001 62.0287 166.039 62.5339C165.942 62.55 165.845 62.5821 165.748 62.5982C164.928 62.7301 164.108 62.891 163.281 62.9843C160.831 63.261 158.877 61.9064 158.307 59.5286C158.171 58.9559 158.051 58.3478 158.093 57.7654C158.206 56.2531 158.31 54.728 158.608 53.2479C159.415 49.1969 160.248 45.1589 160.562 41.0243C160.951 35.934 160.413 33.3921 159.927 28.3148C159.817 27.1661 159.675 26.011 159.409 24.8912C159.072 23.4852 158.284 23.2052 157.043 23.9388C155.974 24.5695 155.238 25.5058 154.749 26.6159C154.243 27.7646 153.747 28.2826 153.362 29.4731C152.402 32.4268 152.013 33.5144 151.07 36.4746C150.348 38.7462 149.453 40.9567 148.228 43.0127C146.381 46.1113 144.009 48.7014 140.804 50.4679C138.237 51.8836 135.502 52.3856 132.608 51.7646C129.85 51.1725 127.672 49.6442 125.984 47.453C122.873 43.4246 122.043 38.8685 123.025 33.9488C123.744 30.3483 124.036 30.1681 126.178 27.2143C127.915 24.8205 129.873 22.6164 131.989 20.5475C132.964 19.5919 133.911 18.6009 134.507 17.3653C134.802 16.754 135.042 16.0718 135.106 15.4026C135.207 14.344 134.607 13.7519 133.538 13.8549C132.76 13.9321 131.96 14.1381 131.247 14.4598C128.975 15.483 124.49 16.1137 122.267 17.2302C117.982 19.3859 117.47 19.2379 113.776 22.314C109.388 25.9659 106.089 30.3483 104.533 35.9018C103.454 39.7597 103.124 43.7045 103.218 47.6815C103.312 51.6134 103.558 55.5388 103.678 59.4707C103.804 63.541 103.717 67.5984 102.903 71.6139C101.831 76.9036 99.4324 81.4308 95.2292 84.9444C94.2861 85.7327 93.3755 86.5564 92.4519 87.3672C89.8657 89.6356 88.2745 92.48 87.5518 95.807C87.0009 98.3425 86.7708 100.917 87.0366 103.494C87.4319 107.303 87.9213 111.103 88.4106 114.903C88.9162 118.816 89.2176 122.729 88.7088 126.664C88.3588 129.379 87.5875 131.973 86.0903 134.296C84.1815 137.246 81.5792 139.325 78.0824 140.113C74.1644 140.998 70.4926 138.707 69.5333 134.846C69.2287 133.62 69.0699 132.362 69.2644 131.11C69.556 129.222 69.8769 127.33 70.2852 125.464C70.9657 122.336 71.8083 119.237 72.4241 116.097C72.8648 113.845 72.8097 111.554 72.1389 109.321C71.7921 108.175 71.3352 107.072 70.5347 106.155C69.731 105.231 68.8852 105.08 67.9065 105.814C67.2 106.345 66.5486 106.991 66.0042 107.686C64.3287 109.829 63.256 112.271 62.5301 114.878C61.4574 118.723 61.1657 122.684 60.7574 126.622C60.3361 130.731 59.9245 134.84 59.1273 138.897C57.2769 148.283 53.6764 156.825 46.9972 163.92C45.5 165.51 44.1778 167.266 42.8555 169.004C41.7505 170.458 40.9079 172.077 40.3018 173.808M145.48 128.041C145.48 126.686 145.535 125.328 145.467 123.977C145.354 121.696 145.072 119.434 144.275 117.268C143.056 113.954 139.725 110.869 134.769 111.975C132.177 112.555 129.766 113.555 127.452 114.807C121.839 117.838 117.399 121.979 114.541 127.767C112.191 132.529 110.185 137.417 108.717 142.504C107.038 148.312 105.506 154.161 103.888 159.985C102.349 165.532 100.615 171.012 98.1102 176.218C97.637 177.199 97.0991 178.155 96.506 179.069C95.8481 180.079 94.9667 180.893 93.8713 181.443C92.3741 182.193 90.9093 182.022 89.7458 180.825C89.1106 180.172 88.55 179.387 88.1611 178.567C87.4708 177.106 86.894 175.587 86.3463 174.065C85.575 171.919 84.9009 169.741 84.1264 167.598C83.6435 166.256 82.95 165.008 82.0231 163.904C79.9167 161.394 76.8606 160.516 73.7495 161.578C70.7454 162.604 68.6875 164.673 67.3523 167.485C66.3153 169.67 65.8681 172.003 65.7384 174.393C65.5343 178.171 65.787 181.923 66.513 185.639C68.2111 194.33 71.9639 202.029 77.7681 208.751C78.1634 209.211 78.5556 209.375 79.1486 209.227C80.3736 208.918 81.6181 208.687 82.8431 208.374C95.537 205.141 108.228 201.914 120.915 198.657C128.936 196.601 136.915 194.41 144.722 191.64C152.325 188.94 159.671 185.707 166.558 181.495C168.227 180.475 169.617 179.152 170.677 177.518C171.05 176.942 171.354 176.295 171.549 175.642C171.973 174.204 171.315 172.888 169.899 172.354C169.29 172.122 168.613 172.012 167.958 171.961C166.632 171.858 165.294 171.871 163.969 171.765C160.472 171.485 158.579 169.133 158.997 165.696C159.211 163.94 159.807 162.299 160.368 160.638C160.802 159.358 161.178 158.055 161.548 156.755C161.655 156.378 161.684 155.973 161.69 155.58C161.732 153.415 160.157 151.993 158.002 152.404C156.774 152.639 155.601 153.154 154.412 153.576C153.131 154.033 151.894 154.647 150.584 154.985C146.981 155.915 144.216 154.158 143.477 150.541C143.325 149.801 143.273 149.036 143.247 148.279C143.182 146.149 143.568 144.068 144.006 141.996C144.984 137.394 145.681 132.761 145.48 128.041ZM46.9519 247.825C47.5287 247.7 47.8852 247.642 48.2319 247.545C52.0398 246.484 55.8671 245.473 59.6523 244.337C76.1477 239.392 87.3931 235.37 103.542 229.411C106.092 228.472 108.587 227.387 111.125 226.409C112.606 225.836 114.139 225.396 115.61 224.803C121.217 222.545 126.791 220.202 132.569 218.378C150.419 212.741 167.686 205.685 184.359 197.213C186.757 195.993 189.13 194.719 191.46 193.38C193.339 192.303 195.008 190.935 196.496 189.349C198.291 187.431 198.622 185.317 197.481 182.965C195.841 179.587 193.498 176.807 190.325 174.744C187.931 173.187 185.315 172.656 182.502 173.184C180.82 173.499 179.275 174.065 177.959 175.272C176.617 176.501 175.143 177.595 173.675 178.679C166.412 184.033 158.433 188.091 150.05 191.392C141.193 194.877 132.07 197.55 122.86 199.919C110.081 203.207 97.2806 206.421 84.4894 209.661C81.2356 210.485 77.9722 211.267 74.6116 211.557C73.9569 211.615 73.2602 211.65 72.6671 211.898C61.2111 216.708 54.6454 219.591 42.9949 223.915C42.794 223.989 42.6093 224.115 42.3306 224.26C42.7032 224.491 42.9755 224.665 43.2542 224.832C45.6264 226.261 47.5968 228.105 49.0454 230.466C50.1181 232.214 50.8148 234.099 50.9185 236.152C51.1227 240.171 49.9009 243.768 47.5546 247.015C47.4056 247.227 47.2468 247.433 46.9519 247.825ZM180.914 246.892C180.723 246.516 180.662 246.365 180.577 246.226C178.082 242.03 177.343 237.529 178.273 232.767C178.905 229.533 180.354 226.708 182.914 224.54C184.998 222.773 187.244 221.242 189.797 220.206C189.94 220.148 190.069 220.061 190.303 219.938C190.099 219.819 189.998 219.745 189.888 219.7C188.656 219.205 187.431 218.68 186.184 218.23C177.479 215.08 168.525 212.824 159.487 210.858C158.945 210.739 158.456 210.807 157.938 211.016C150.915 213.857 143.785 216.418 136.591 218.793C136.322 218.883 136.062 218.999 135.586 219.189C136.118 219.366 136.445 219.488 136.779 219.588C143.315 221.509 149.865 223.378 156.382 225.363C161.787 227.011 167.102 228.935 172.239 231.3C172.926 231.615 173.597 232.014 174.183 232.487C175.039 233.179 175.389 234.131 175.224 235.232C175.042 236.422 174.251 237.014 173.049 236.869C172.754 236.834 172.456 236.779 172.171 236.696C169.044 235.788 165.916 234.884 162.795 233.954C160.595 233.298 158.472 232.452 156.395 231.464C151.547 229.157 146.481 227.41 141.212 226.374C135.537 225.257 129.818 224.369 124.114 223.404C123.78 223.346 123.385 223.446 123.061 223.578C120.345 224.655 117.636 225.756 114.926 226.856C114.742 226.93 114.576 227.062 114.281 227.239C136.354 234.347 158.297 241.297 180.914 246.892ZM38.2926 185.53C37.6671 185.317 37.1259 185.153 36.6009 184.95C33.6 183.779 30.6023 182.598 27.6014 181.424C23.9199 179.982 20.2384 178.541 16.5569 177.109C15.4972 176.697 14.4569 176.263 13.663 175.41C12.4444 174.104 12.5741 173.467 14.2009 172.788C16.531 171.813 18.9324 171.813 21.3597 172.289C24.9343 172.987 28.3338 174.226 31.6782 175.629C33.3634 176.334 35.0648 177 36.763 177.672C37.0514 177.785 37.3593 177.849 37.7125 177.952C37.8421 177.045 37.9491 176.273 38.0593 175.516C36.4518 174.812 34.9287 174.152 33.4153 173.476C30.7773 172.296 28.1685 171.054 25.5079 169.924C22.9704 168.846 20.4069 167.82 17.675 167.315C14.3889 166.707 11.5111 167.434 9.275 170.005C8.36435 171.05 7.51852 172.167 6.75694 173.325C4.64722 176.52 2.94908 179.918 2.08056 183.667C1.2088 187.431 2.3625 190.153 5.64537 192.238C6.00834 192.47 6.37454 192.711 6.76667 192.882C7.98194 193.413 9.1875 193.992 10.4417 194.413C16.5893 196.469 22.6657 198.712 28.6514 201.193C35.7097 204.118 42.7454 207.1 49.8361 209.945C53.6861 211.489 57.6398 212.789 61.5319 214.234C61.9792 214.401 62.3259 214.414 62.7505 214.234C64.4616 213.507 66.1889 212.808 67.9032 212.094C68.1301 212.001 68.3407 211.872 68.6486 211.711C68.4282 211.65 68.3343 211.611 68.237 211.602C64.8051 211.277 61.4736 210.546 58.2718 209.263C58.1227 209.201 57.9574 209.282 57.7986 209.153C57.1796 209.076 56.956 209.04 56.6255 208.77C54.0556 206.672 51.3884 204.677 48.9482 202.441C43.8569 197.789 39.9518 192.354 38.2926 185.53ZM198.878 231.152C198.781 230.392 198.725 229.466 198.531 228.568C197.935 225.788 196.1 223.777 194.15 221.863C193.741 221.46 193.181 221.322 192.587 221.316C191.596 221.306 190.682 221.596 189.804 222.001C187.558 223.04 185.526 224.411 183.698 226.071C182.194 227.435 181.141 229.099 180.464 231.001C179.404 233.974 179.317 237.014 179.926 240.081C180.435 242.645 181.485 244.984 183.186 247.002C183.452 247.314 183.812 247.61 184.191 247.755C185.195 248.144 186.252 248.231 187.328 248.051C189.298 247.722 190.961 246.776 192.4 245.46C196.564 241.657 198.515 236.853 198.878 231.152ZM49.337 237.439C49.3403 234.916 48.6759 232.902 47.4801 231.055C45.8694 228.571 43.6366 226.805 41.0051 225.466C40.0005 224.955 39.0218 224.861 38.0366 225.289C37.1907 225.653 36.3093 226.055 35.6319 226.65C34.7731 227.407 33.9856 228.301 33.3731 229.266C31.3542 232.445 30.5278 235.956 30.975 239.688C31.487 243.961 33.8042 246.944 37.8648 248.511C38.5972 248.794 39.4074 248.958 40.1917 249.006C42.5639 249.154 44.4565 248.144 45.9407 246.368C48.1769 243.694 49.1167 240.541 49.337 237.439ZM173.373 235.319C173.794 234.553 173.525 234.048 173.072 233.684C172.586 233.298 172.038 232.95 171.461 232.716C168.447 231.486 165.45 230.215 162.387 229.112C152.785 225.653 142.91 223.076 133.11 220.254C132.812 220.167 132.436 220.16 132.144 220.257C130.505 220.794 128.878 221.377 127.244 221.94C127.16 221.969 127.069 221.975 126.982 221.991C127.338 222.229 127.556 222.3 127.782 222.336C131.422 222.944 135.071 223.504 138.7 224.166C145.606 225.424 152.234 227.542 158.537 230.634C159.162 230.939 159.804 231.226 160.465 231.438C163.34 232.371 166.218 233.298 169.108 234.183C170.495 234.607 171.918 234.932 173.373 235.319ZM14.9009 174.31C15.5944 175.014 16.3528 175.278 17.0917 175.558C18.9551 176.263 20.8347 176.922 22.6884 177.653C27.3519 179.493 31.9991 181.366 36.656 183.223C37.0125 183.364 37.3884 183.47 37.8583 183.625C37.7546 182.251 37.6606 181.012 37.5634 179.696C37.1421 179.548 36.7046 179.406 36.2768 179.236C33.4056 178.103 30.5505 176.926 27.6597 175.841C24.9213 174.815 22.1505 173.872 19.1981 173.647C17.769 173.538 16.3657 173.67 14.9009 174.31Z" fill="#1B1B63"/>
<path d="M109.508 0C109.767 0.279931 109.984 0.624213 110.295 0.830139C112.541 2.31345 113.617 4.78456 113.131 7.41977C112.496 10.8594 108.996 13.9965 105.505 14.2636C102.391 14.4985 99.9898 12.6194 99.5263 9.54982C99.1018 6.72799 100.087 4.42741 102.265 2.61912C103.885 1.27095 105.817 0.595255 107.868 0.209143C108.088 0.167315 108.296 0.0740047 108.51 0.00321767C108.84 7.37168e-08 109.174 0 109.508 0ZM101.066 8.37218C101.079 8.56845 101.079 8.83551 101.111 9.09614C101.393 11.3452 103.149 12.8511 105.253 12.6516C107.975 12.3942 110.678 10.1612 111.426 7.55169C112.016 5.50208 111.193 3.25942 109.437 2.30701C108.963 2.05282 108.341 1.80829 107.849 1.89516C105.852 2.25232 104.034 3.04063 102.608 4.54324C101.607 5.59861 101.082 6.85026 101.066 8.37218Z" fill="#1B1B63"/>
<path d="M186.806 35.9116C186.731 37.9644 186.443 39.8499 185.429 41.5456C184.298 43.4408 182.658 44.4833 180.38 44.2065C178.782 44.0103 177.531 43.148 176.543 41.9156C175.45 40.5546 174.971 38.9426 174.708 37.263C174.31 34.7211 173.921 32.1728 173.59 29.6212C173.493 28.8812 173.532 28.0993 173.645 27.3592C173.911 25.6668 174.948 24.5471 176.572 24.0451C178.474 23.4595 180.26 23.704 181.796 25.0683C185.082 27.9931 186.644 31.6933 186.806 35.9116ZM185.27 36.1754C185.079 32.324 183.666 29.0935 180.872 26.4551C180.111 25.7343 179.213 25.3675 178.166 25.4029C176.416 25.4673 175.237 26.6192 175.191 28.3503C175.172 29.0388 175.249 29.7338 175.347 30.4192C175.635 32.443 175.917 34.4669 176.274 36.4779C176.465 37.5429 176.727 38.6079 177.103 39.6215C177.511 40.7283 178.283 41.6035 179.355 42.173C180.798 42.9388 182.262 42.7618 183.342 41.5456C183.88 40.9407 184.353 40.2071 184.602 39.4477C184.946 38.3956 185.056 37.2694 185.27 36.1754Z" fill="#1B1B63"/>
<path d="M40.2953 173.824C40.9013 172.093 41.7439 170.474 42.849 169.02C44.1712 167.279 45.4934 165.523 46.9907 163.936C53.6698 156.842 57.2735 148.299 59.1208 138.913C59.9212 134.856 60.3296 130.747 60.7509 126.638C61.156 122.696 61.4508 118.736 62.5235 114.894C63.2495 112.288 64.3254 109.845 65.9976 107.702C66.5421 107.007 67.1902 106.361 67.8999 105.83C68.8819 105.096 69.7245 105.244 70.5282 106.171C71.3254 107.088 71.7856 108.192 72.1323 109.337C72.8064 111.567 72.8583 113.861 72.4175 116.113C71.8018 119.254 70.9624 122.349 70.2786 125.48C69.8703 127.349 69.5527 129.238 69.2578 131.127C69.0634 132.378 69.2221 133.636 69.5268 134.862C70.486 138.723 74.1546 141.014 78.0759 140.129C81.5726 139.341 84.1749 137.262 86.0837 134.312C87.5842 131.992 88.3522 129.399 88.7022 126.68C89.211 122.748 88.9064 118.832 88.4041 114.92C87.9147 111.12 87.4222 107.32 87.03 103.51C86.7643 100.933 86.9944 98.3586 87.5453 95.8231C88.268 92.4929 89.8592 89.6518 92.4453 87.3834C93.3689 86.5725 94.2796 85.7488 95.2226 84.9605C99.4259 81.4501 101.824 76.9198 102.897 71.63C103.71 67.6177 103.798 63.5571 103.671 59.4868C103.548 55.5549 103.305 51.6295 103.211 47.6976C103.114 43.7206 103.444 39.7759 104.524 35.918C106.079 30.3644 109.381 25.9853 113.766 22.3301C117.464 19.2508 117.973 19.3989 122.257 17.2463C124.483 16.1266 128.968 15.4991 131.237 14.4759C131.95 14.1542 132.75 13.9483 133.528 13.871C134.598 13.7681 135.194 14.3601 135.097 15.4187C135.035 16.088 134.795 16.7701 134.497 17.3814C133.901 18.617 132.955 19.608 131.979 20.5636C129.863 22.6325 127.905 24.8366 126.168 27.2305C124.026 30.1842 123.735 30.3644 123.015 33.9649C122.033 38.8846 122.863 43.4375 125.974 47.4691C127.666 49.6603 129.84 51.1887 132.598 51.7807C135.492 52.4017 138.224 51.903 140.794 50.484C143.996 48.7176 146.371 46.1242 148.218 43.0289C149.447 40.9728 150.338 38.7623 151.061 36.4907C152.004 33.5305 152.393 32.4462 153.352 29.4892C153.737 28.2987 154.233 27.7807 154.739 26.632C155.228 25.5219 155.964 24.5888 157.033 23.955C158.274 23.2214 159.062 23.5013 159.399 24.9074C159.668 26.0271 159.807 27.1822 159.918 28.3309C160.404 33.4083 160.942 35.9502 160.553 41.0404C160.238 45.175 159.405 49.2131 158.599 53.264C158.304 54.7473 158.197 56.2725 158.083 57.7815C158.038 58.3607 158.158 58.9688 158.297 59.5448C158.868 61.9226 160.822 63.2739 163.272 63.0005C164.098 62.9071 164.915 62.7463 165.738 62.6143C165.835 62.5983 165.932 62.5661 166.03 62.55C168.995 62.048 171.004 63.1999 172.051 66.0089C172.832 68.1068 172.868 70.2433 172.103 72.3218C171.419 74.1784 170.537 75.9609 169.76 77.7821C169.086 79.3619 168.356 80.9224 167.789 82.5409C167.339 83.8183 167.115 85.1697 167.4 86.5404C167.893 88.9246 169.766 90.2374 172.174 89.7515C173.269 89.5295 174.358 89.1595 175.379 88.6961C176.585 88.1459 177.709 87.422 178.866 86.7752C179.939 86.1768 180.986 85.5172 182.094 84.9991C182.959 84.5969 183.886 84.272 184.819 84.0821C187.247 83.5834 189.204 84.4361 190.688 86.3666C191.793 87.8017 192.315 89.4587 192.442 91.2445C192.574 93.1461 192.312 95.0187 191.771 96.8302C189.894 103.14 187.752 109.356 184.771 115.254C182.499 119.749 179.631 123.823 176.099 127.43C175.006 128.546 173.947 129.688 173.185 131.065C172.355 132.568 172.005 134.145 172.449 135.84C173.224 138.797 176.043 140.113 178.756 138.669C179.855 138.083 180.791 137.198 181.78 136.423C182.797 135.625 183.727 134.708 184.8 133.997C186.624 132.793 188.601 132.716 190.611 133.578C191.985 134.167 193.112 135.078 194.033 136.239C195.43 138.003 195.958 140.062 196.026 142.253C196.104 144.734 195.54 147.108 194.72 149.431C192.555 155.558 189.211 161.015 184.991 165.938C183.16 168.074 181.125 170.037 179.145 172.041C178.639 172.553 177.994 172.926 177.408 173.354C176.487 174.03 175.463 174.525 174.857 175.629C174.507 176.263 173.662 176.63 173.036 177.119C172.997 177.071 172.955 177.022 172.916 176.977C173.02 176.562 173.153 176.157 173.218 175.735C173.649 172.965 171.843 170.716 168.888 170.413C167.598 170.281 166.295 170.304 164.999 170.217C164.37 170.175 163.732 170.114 163.126 169.953C161.34 169.48 160.374 168.164 160.559 166.34C160.663 165.33 160.899 164.319 161.194 163.348C161.664 161.8 162.261 160.291 162.756 158.75C163.174 157.453 163.414 156.124 163.275 154.747C163.055 152.607 161.389 150.963 159.23 150.757C158.012 150.641 156.839 150.838 155.711 151.285C154.599 151.726 153.52 152.25 152.396 152.652C151.368 153.019 150.318 153.402 149.246 153.54C147.282 153.791 145.908 152.845 145.269 150.986C144.764 149.512 144.725 147.987 144.962 146.474C145.376 143.833 145.879 141.204 146.336 138.569C147.149 133.89 147.386 129.183 147.133 124.447C147.019 122.297 146.809 120.164 146.248 118.076C145.509 115.328 144.087 113.066 141.624 111.49C139.831 110.344 137.903 109.945 135.813 110.18C133.849 110.399 131.953 110.894 130.142 111.676C125.702 113.591 121.699 116.165 118.242 119.543C117.026 120.73 115.989 122.063 115.098 123.507C112.003 128.527 109.657 133.887 107.949 139.502C106.15 145.409 104.566 151.385 102.919 157.34C101.396 162.852 99.8018 168.344 97.4944 173.596C96.911 174.924 96.2823 176.247 95.5467 177.498C95.0865 178.284 94.461 179.014 93.7708 179.612C92.6073 180.616 91.418 180.459 90.4911 179.239C90.0147 178.612 89.587 177.914 89.3018 177.186C88.5208 175.188 87.8337 173.152 87.0981 171.134C86.4532 169.364 85.8471 167.579 85.118 165.848C84.7356 164.943 84.1944 164.084 83.6046 163.293C80.9472 159.747 76.8184 158.598 72.6735 160.22C69.543 161.446 67.3684 163.679 65.9393 166.662C64.8666 168.898 64.3027 171.279 64.1536 173.734C63.3953 186.192 67.0055 197.341 74.4592 207.322C74.8157 207.799 75.1851 208.262 75.6226 208.825C74.2874 209.375 73.1272 210.089 71.6495 210.093C66.8921 210.099 62.3259 209.263 57.9444 207.387C57.1342 207.039 56.4212 206.598 55.7407 206.077C52.0657 203.262 48.5916 200.24 45.6911 196.614C42.6837 192.853 40.5254 188.692 39.6407 183.937C39.2032 181.578 39.1578 179.21 39.5208 176.836C39.6212 176.405 39.7379 175.883 39.9064 175.304" fill="url(#paint0_linear_690_2055)"/>
<path d="M145.48 128.041C145.681 132.764 144.984 137.394 144.012 141.999C143.574 144.071 143.186 146.153 143.254 148.283C143.276 149.039 143.331 149.805 143.484 150.545C144.223 154.158 146.987 155.915 150.591 154.988C151.9 154.65 153.138 154.036 154.418 153.579C155.604 153.157 156.781 152.643 158.009 152.408C160.164 151.996 161.739 153.418 161.697 155.583C161.69 155.976 161.661 156.385 161.554 156.758C161.185 158.058 160.809 159.361 160.374 160.642C159.814 162.302 159.218 163.943 159.004 165.7C158.586 169.136 160.478 171.485 163.975 171.768C165.3 171.874 166.639 171.861 167.964 171.964C168.619 172.016 169.296 172.125 169.906 172.357C171.318 172.891 171.98 174.207 171.555 175.645C171.361 176.302 171.056 176.948 170.683 177.521C169.624 179.156 168.233 180.478 166.564 181.498C159.678 185.71 152.328 188.943 144.728 191.643C136.921 194.413 128.939 196.605 120.922 198.661C108.234 201.914 95.5435 205.144 82.8495 208.378C81.6245 208.69 80.38 208.922 79.155 209.23C78.562 209.378 78.1731 209.214 77.7745 208.754C71.9703 202.033 68.2175 194.333 66.5194 185.642C65.7935 181.926 65.5374 178.174 65.7448 174.397C65.8745 172.006 66.3217 169.673 67.3587 167.489C68.6939 164.676 70.7518 162.607 73.756 161.581C76.8671 160.519 79.9231 161.398 82.0296 163.907C82.9564 165.011 83.6499 166.259 84.1328 167.601C84.9041 169.747 85.5814 171.926 86.3527 174.069C86.9004 175.59 87.4772 177.109 88.1675 178.57C88.5564 179.39 89.1171 180.172 89.7523 180.829C90.9157 182.026 92.3805 182.196 93.8777 181.446C94.9731 180.899 95.8546 180.082 96.5124 179.072C97.1055 178.161 97.6435 177.202 98.1166 176.221C100.622 171.015 102.355 165.535 103.895 159.988C105.509 154.161 107.045 148.315 108.724 142.507C110.195 137.42 112.198 132.536 114.547 127.771C117.402 121.982 121.842 117.841 127.458 114.81C129.775 113.558 132.183 112.558 134.776 111.979C139.734 110.872 143.062 113.957 144.281 117.272C145.078 119.437 145.36 121.699 145.474 123.98C145.535 125.328 145.48 126.686 145.48 128.041Z" fill="url(#paint1_linear_690_2055)"/>
<path d="M46.9517 247.825C47.2466 247.433 47.4087 247.227 47.561 247.015C49.9073 243.768 51.1258 240.171 50.9249 236.152C50.8212 234.096 50.1244 232.214 49.0517 230.467C47.6031 228.105 45.6327 226.261 43.2605 224.833C42.9818 224.665 42.7064 224.491 42.3369 224.26C42.6156 224.115 42.7971 223.993 43.0013 223.916C54.6517 219.588 61.2142 216.708 72.6735 211.898C73.2665 211.65 73.9633 211.611 74.6179 211.557C77.9786 211.264 81.242 210.485 84.4957 209.662C97.2869 206.425 110.088 203.207 122.866 199.919C132.076 197.551 141.199 194.877 150.056 191.392C158.443 188.094 166.418 184.033 173.681 178.679C175.149 177.595 176.624 176.501 177.965 175.272C179.281 174.065 180.827 173.499 182.509 173.184C185.322 172.659 187.937 173.187 190.332 174.744C193.505 176.807 195.844 179.587 197.487 182.965C198.631 185.317 198.298 187.434 196.502 189.349C195.015 190.935 193.346 192.303 191.466 193.381C189.136 194.719 186.764 195.993 184.366 197.213C167.692 205.688 150.425 212.741 132.575 218.378C126.8 220.202 121.226 222.545 115.617 224.804C114.145 225.396 112.612 225.84 111.131 226.409C108.594 227.387 106.098 228.472 103.548 229.411C87.3994 235.37 76.1573 239.392 59.6587 244.338C55.8702 245.473 52.0462 246.484 48.2383 247.546C47.8851 247.642 47.5286 247.7 46.9517 247.825ZM56.7939 229.717C56.7485 230.592 57.1212 230.981 57.9994 230.792C59.1661 230.537 60.3327 230.245 61.4508 229.836C70.0064 226.728 73.542 225.238 81.9031 221.634C88.1027 218.964 94.1661 216.029 100.009 212.651C100.44 212.403 100.881 212.158 101.26 211.843C102.161 211.093 102.174 210.086 101.331 209.269C100.716 208.667 99.9216 208.445 99.1244 208.561C97.7179 208.767 96.2628 208.934 94.9439 209.42C84.4017 213.307 74.0832 217.722 63.9559 222.577C61.4994 223.755 64.0466 223.266 61.6128 224.482C60.3327 225.122 59.098 225.84 58.0999 226.895C57.348 227.69 56.8943 228.623 56.7939 229.717ZM140.988 206.331C141.811 206.096 142.622 205.907 143.399 205.633C149.537 203.458 155.666 201.27 161.797 199.079C165.926 197.602 170.084 196.206 174.08 194.381C178.186 192.505 182.045 190.256 185.296 187.09C186.054 186.353 186.744 185.543 187.425 184.732C187.905 184.159 188.151 183.48 188.096 182.711C188.06 182.212 187.836 181.884 187.334 181.82C186.255 181.681 185.218 181.559 184.119 182.013C174.018 186.196 164.049 190.665 154.246 195.495C150.853 197.168 147.505 198.941 144.174 200.733C142.502 201.63 140.985 202.776 139.614 204.089C138.917 204.755 138.963 205.35 139.776 205.865C140.126 206.084 140.564 206.174 140.988 206.331Z" fill="#7C2CE8"/>
<path d="M180.914 246.892C158.294 241.297 136.354 234.347 114.288 227.236C114.583 227.059 114.748 226.927 114.933 226.853C117.642 225.753 120.348 224.652 123.067 223.574C123.391 223.446 123.787 223.346 124.12 223.401C129.824 224.366 135.544 225.254 141.219 226.37C146.488 227.407 151.55 229.154 156.402 231.461C158.479 232.449 160.602 233.295 162.802 233.951C165.923 234.881 169.05 235.785 172.177 236.693C172.463 236.776 172.761 236.831 173.056 236.866C174.258 237.011 175.049 236.419 175.23 235.229C175.396 234.128 175.045 233.172 174.19 232.484C173.603 232.011 172.933 231.615 172.245 231.297C167.109 228.932 161.794 227.008 156.389 225.36C149.875 223.375 143.322 221.505 136.785 219.585C136.452 219.488 136.127 219.366 135.593 219.186C136.069 218.996 136.328 218.88 136.597 218.79C143.795 216.415 150.921 213.854 157.944 211.013C158.463 210.804 158.952 210.736 159.493 210.855C168.532 212.821 177.486 215.08 186.19 218.227C187.438 218.677 188.66 219.205 189.895 219.697C190.005 219.742 190.102 219.816 190.309 219.935C190.076 220.061 189.946 220.144 189.804 220.202C187.25 221.242 185.004 222.77 182.92 224.536C180.36 226.705 178.912 229.53 178.28 232.764C177.35 237.526 178.089 242.027 180.584 246.223C180.662 246.365 180.723 246.516 180.914 246.892Z" fill="#7C2CE8"/>
<path d="M58.2653 209.259C61.4671 210.543 64.8019 211.277 68.2306 211.599C68.3278 211.608 68.4185 211.647 68.6421 211.708C68.3343 211.869 68.1236 211.997 67.8968 212.091C66.1792 212.805 64.4551 213.503 62.744 214.231C62.3195 214.411 61.9727 214.398 61.5255 214.231C57.6333 212.786 53.6829 211.486 49.8296 209.941C42.7389 207.097 35.7032 204.114 28.6449 201.19C22.6593 198.709 16.5829 196.466 10.4352 194.41C9.17778 193.989 7.97547 193.409 6.76019 192.879C6.36806 192.708 6.00186 192.467 5.63889 192.235C2.35602 190.15 1.20232 187.428 2.07408 183.663C2.9426 179.915 4.64074 176.52 6.75047 173.322C7.51528 172.164 8.36112 171.047 9.26852 170.001C11.5046 167.431 14.3824 166.703 17.6685 167.312C20.4005 167.817 22.9671 168.843 25.5014 169.921C28.162 171.05 30.7708 172.289 33.4088 173.473C34.9222 174.152 36.4454 174.809 38.0528 175.513C37.9458 176.269 37.8357 177.042 37.706 177.949C37.3528 177.846 37.0449 177.785 36.7565 177.669C35.0583 176.997 33.3569 176.33 31.6718 175.626C28.3241 174.226 24.9278 172.987 21.3532 172.286C18.9259 171.81 16.5213 171.81 14.1944 172.785C12.5676 173.467 12.438 174.101 13.6565 175.407C14.4505 176.26 15.494 176.691 16.5505 177.106C20.2352 178.541 23.9134 179.979 27.5949 181.421C30.5958 182.595 33.5935 183.776 36.5944 184.947C37.1194 185.153 37.6607 185.314 38.2861 185.526C39.9421 192.354 43.8505 197.789 48.932 202.438C51.3755 204.674 54.0394 206.669 56.6093 208.767" fill="#7C2CE8"/>
<path d="M198.878 231.152C198.518 236.85 196.567 241.657 192.403 245.46C190.961 246.776 189.301 247.722 187.331 248.051C186.255 248.231 185.199 248.144 184.194 247.755C183.815 247.607 183.455 247.314 183.189 247.002C181.488 244.984 180.438 242.645 179.929 240.081C179.32 237.014 179.407 233.974 180.467 231.001C181.144 229.099 182.201 227.436 183.701 226.071C185.529 224.411 187.558 223.04 189.807 222.001C190.685 221.596 191.599 221.306 192.591 221.316C193.184 221.322 193.744 221.46 194.153 221.863C196.104 223.777 197.938 225.788 198.534 228.568C198.722 229.466 198.777 230.392 198.878 231.152ZM193.566 232.233C193.388 231.03 193.249 229.817 193.025 228.623C192.827 227.567 192.782 227.577 191.661 227.506C191.56 227.5 191.463 227.49 191.366 227.468C188.397 226.818 186.245 228.057 184.638 230.412C183.465 232.133 183.021 234.093 183.112 236.155C183.16 237.252 183.41 238.311 183.98 239.276C185.341 241.59 187.986 242.124 190.134 240.509C191.168 239.733 191.894 238.713 192.412 237.548C193.164 235.866 193.501 234.096 193.566 232.233Z" fill="#B16AEF"/>
<path d="M49.3371 237.439C49.12 240.541 48.1769 243.694 45.9441 246.365C44.4598 248.141 42.5672 249.148 40.195 249.003C39.4107 248.955 38.6006 248.791 37.8681 248.508C33.8075 246.941 31.4904 243.958 30.9783 239.685C30.5311 235.953 31.3575 232.445 33.3765 229.263C33.989 228.298 34.7765 227.403 35.6353 226.647C36.3126 226.052 37.1941 225.653 38.0399 225.286C39.0283 224.858 40.007 224.955 41.0084 225.463C43.6399 226.802 45.8728 228.568 47.4834 231.052C48.676 232.902 49.3371 234.92 49.3371 237.439ZM46.7186 237.297C46.7186 236.966 46.7445 236.635 46.7154 236.306C46.508 234.096 45.6297 232.233 43.7987 230.891C42.8654 230.209 41.8121 229.817 40.6455 229.813C40.37 229.813 39.9455 229.894 39.8482 230.074C39.5728 230.586 39.0802 230.785 38.6686 231.104C37.4339 232.056 36.6464 233.295 36.3839 234.823C35.9496 237.349 36.4876 239.695 37.9394 241.799C38.3996 242.465 39.0056 243.086 39.67 243.549C41.2709 244.666 43.2024 244.466 44.5797 243.083C45.0626 242.597 45.4677 242.008 45.7982 241.406C46.4918 240.132 46.751 238.739 46.7186 237.297Z" fill="#B16AEF"/>
<path d="M173.373 235.319C171.918 234.936 170.495 234.608 169.102 234.183C166.211 233.298 163.333 232.375 160.459 231.438C159.798 231.223 159.156 230.939 158.531 230.634C152.227 227.542 145.6 225.425 138.694 224.166C135.064 223.507 131.415 222.947 127.776 222.336C127.552 222.297 127.332 222.226 126.976 221.991C127.063 221.975 127.154 221.969 127.238 221.94C128.871 221.377 130.498 220.794 132.138 220.257C132.43 220.161 132.806 220.167 133.104 220.254C142.904 223.076 152.778 225.653 162.381 229.112C165.44 230.216 168.441 231.486 171.455 232.716C172.028 232.951 172.579 233.298 173.065 233.684C173.526 234.048 173.795 234.553 173.373 235.319Z" fill="#B16AEF"/>
<path d="M14.9009 174.31C16.3689 173.67 17.7689 173.538 19.2013 173.647C22.1537 173.872 24.9245 174.815 27.6629 175.842C30.5537 176.926 33.4088 178.103 36.28 179.236C36.7078 179.403 37.1453 179.545 37.5666 179.696C37.6671 181.012 37.7578 182.254 37.8615 183.625C37.3884 183.467 37.0157 183.364 36.6592 183.223C32.0023 181.366 27.3518 179.493 22.6916 177.653C20.8412 176.923 18.9583 176.263 17.0949 175.558C16.3495 175.278 15.5944 175.015 14.9009 174.31Z" fill="#B16AEF"/>
<path d="M101.066 8.37222C101.082 6.8503 101.607 5.59865 102.608 4.54328C104.034 3.04067 105.852 2.24914 107.849 1.8952C108.341 1.80833 108.963 2.05286 109.437 2.30705C111.193 3.25946 112.016 5.50212 111.426 7.55173C110.678 10.1644 107.975 12.3942 105.253 12.6516C103.149 12.8511 101.393 11.3453 101.111 9.09618C101.075 8.83233 101.075 8.56849 101.066 8.37222Z" fill="#E081C8"/>
<path d="M185.27 36.1754C185.059 37.2694 184.949 38.3987 184.602 39.4477C184.353 40.207 183.876 40.9406 183.342 41.5455C182.262 42.7586 180.798 42.9388 179.356 42.173C178.283 41.6035 177.512 40.7283 177.103 39.6214C176.727 38.6079 176.465 37.5429 176.274 36.4778C175.914 34.4668 175.632 32.443 175.347 30.4191C175.25 29.737 175.175 29.0388 175.191 28.3502C175.237 26.6191 176.416 25.4672 178.166 25.4029C179.213 25.3643 180.111 25.7343 180.872 26.455C183.662 29.0902 185.079 32.3239 185.27 36.1754Z" fill="#E081C8"/>
<path d="M56.794 229.717C56.8944 228.623 57.3481 227.69 58.1032 226.892C59.1014 225.84 60.3361 225.119 61.6162 224.479C64.05 223.262 61.5028 223.748 63.9592 222.574C74.0866 217.718 84.4051 213.304 94.9472 209.417C96.2662 208.931 97.7213 208.764 99.1278 208.558C99.925 208.442 100.719 208.664 101.335 209.266C102.174 210.083 102.164 211.09 101.263 211.84C100.884 212.155 100.44 212.4 100.012 212.647C94.1727 216.029 88.106 218.96 81.9065 221.631C73.5454 225.235 70.0097 226.724 61.4541 229.833C60.3361 230.238 59.1662 230.534 58.0028 230.788C57.1213 230.981 56.7486 230.592 56.794 229.717ZM58.7352 228.639C58.7838 228.703 58.8291 228.768 58.8778 228.832C58.9717 228.832 59.0754 228.851 59.1629 228.829C59.5486 228.726 59.9342 228.626 60.3102 228.494C68.9435 225.392 72.5407 223.867 80.9731 220.254C87.2407 217.567 93.3657 214.597 99.2606 211.174C99.562 211 99.8472 210.801 100.181 210.585C99.7176 210.122 99.2347 210.118 98.794 210.202C97.6856 210.411 96.5449 210.559 95.4981 210.949C82.3958 215.801 74.631 219.758 62.1606 226.033C61.4217 226.403 60.7055 226.837 60.0412 227.329C59.5486 227.693 59.1662 228.198 58.7352 228.639Z" fill="#1B1B63"/>
<path d="M140.989 206.331C140.561 206.17 140.126 206.084 139.776 205.862C138.963 205.347 138.918 204.755 139.614 204.085C140.989 202.773 142.502 201.627 144.174 200.73C147.509 198.941 150.853 197.164 154.246 195.491C164.05 190.662 174.018 186.192 184.12 182.01C185.218 181.553 186.255 181.678 187.334 181.817C187.837 181.881 188.06 182.212 188.096 182.708C188.148 183.477 187.905 184.156 187.425 184.728C186.745 185.539 186.054 186.35 185.296 187.087C182.045 190.253 178.186 192.502 174.08 194.378C170.087 196.202 165.926 197.599 161.797 199.076C155.666 201.267 149.534 203.455 143.4 205.63C142.622 205.91 141.812 206.096 140.989 206.331ZM186.362 183.474C185.646 183.107 185.17 183.371 184.683 183.57C172.456 188.606 160.439 194.095 148.682 200.141C146.708 201.154 144.839 202.371 142.93 203.503C142.628 203.683 142.366 203.934 142.087 204.153C142.466 204.192 142.777 204.105 143.079 203.995C149.398 201.743 155.714 199.484 162.034 197.238C166.354 195.704 170.687 194.211 174.815 192.2C178.882 190.218 182.616 187.785 185.623 184.365C185.86 184.101 186.077 183.821 186.362 183.474Z" fill="#1B1B63"/>
<path d="M193.566 232.233C193.498 234.093 193.164 235.866 192.413 237.552C191.894 238.716 191.168 239.736 190.134 240.512C187.982 242.124 185.341 241.59 183.98 239.279C183.413 238.314 183.16 237.256 183.112 236.158C183.021 234.093 183.462 232.133 184.638 230.415C186.245 228.06 188.397 226.821 191.366 227.471C191.463 227.493 191.563 227.503 191.661 227.51C192.782 227.577 192.824 227.571 193.025 228.626C193.249 229.817 193.391 231.03 193.566 232.233ZM191.473 229.212C189.454 228.52 187.95 229.163 186.657 230.505C186.472 230.695 186.304 230.904 186.155 231.12C184.943 232.899 184.525 234.865 184.875 236.966C184.969 237.536 185.218 238.115 185.526 238.607C186.336 239.904 187.697 240.196 188.958 239.315C189.512 238.926 190.04 238.401 190.381 237.822C191.962 235.116 192.108 232.21 191.473 229.212Z" fill="#1B1B63"/>
<path d="M46.7186 237.297C46.751 238.739 46.4917 240.135 45.795 241.406C45.4644 242.008 45.0626 242.597 44.5765 243.083C43.1991 244.466 41.2644 244.666 39.6667 243.549C39.0024 243.086 38.3964 242.465 37.9362 241.799C36.4876 239.695 35.9464 237.349 36.3806 234.823C36.6431 233.298 37.4306 232.059 38.6653 231.104C39.0769 230.785 39.5695 230.586 39.845 230.074C39.9422 229.894 40.3667 229.813 40.6422 229.813C41.8089 229.817 42.8621 230.209 43.7954 230.891C45.6297 232.236 46.5079 234.096 46.7121 236.306C46.7445 236.635 46.7186 236.966 46.7186 237.297ZM45.163 236.921C45.0593 236.413 44.9556 235.557 44.7028 234.743C44.3626 233.642 43.6561 232.777 42.6871 232.114C42.0195 231.66 41.3422 231.612 40.6098 231.876C39.307 232.342 38.526 233.324 38.1857 234.579C37.4727 237.23 38.0852 239.633 39.9357 241.654C41.2482 243.086 42.8491 242.899 43.9542 241.297C44.7936 240.087 45.0723 238.71 45.163 236.921Z" fill="#1B1B63"/>
<path d="M58.7351 228.639C59.1661 228.198 59.5485 227.693 60.0411 227.329C60.7022 226.837 61.4217 226.403 62.1606 226.033C74.6342 219.758 82.3957 215.801 95.4981 210.949C96.5448 210.562 97.6856 210.411 98.7939 210.202C99.2379 210.118 99.7175 210.122 100.181 210.585C99.8471 210.801 99.562 211 99.2606 211.174C93.3657 214.597 87.2407 217.567 80.9731 220.254C72.5439 223.867 68.9434 225.392 60.3101 228.494C59.9374 228.629 59.5485 228.726 59.1629 228.829C59.0754 228.851 58.9717 228.832 58.8777 228.832C58.8291 228.768 58.7805 228.703 58.7351 228.639Z" fill="#B16AEF"/>
<path d="M186.362 183.474C186.077 183.821 185.86 184.098 185.626 184.365C182.619 187.785 178.886 190.221 174.819 192.2C170.69 194.211 166.357 195.704 162.037 197.238C155.718 199.484 149.401 201.743 143.082 203.995C142.777 204.105 142.466 204.192 142.09 204.153C142.369 203.934 142.628 203.683 142.933 203.503C144.842 202.367 146.712 201.154 148.685 200.141C160.439 194.095 172.459 188.609 184.687 183.57C185.17 183.371 185.646 183.107 186.362 183.474Z" fill="#B16AEF"/>
<path d="M191.473 229.212C192.108 232.21 191.962 235.119 190.381 237.828C190.044 238.408 189.515 238.932 188.958 239.321C187.697 240.203 186.336 239.91 185.526 238.613C185.218 238.118 184.969 237.542 184.875 236.972C184.525 234.868 184.943 232.902 186.155 231.126C186.304 230.907 186.472 230.701 186.657 230.512C187.953 229.163 189.454 228.517 191.473 229.212Z" fill="#8F3EE5"/>
<path d="M45.1631 236.921C45.0723 238.707 44.7936 240.087 43.9543 241.3C42.8492 242.899 41.2483 243.089 39.9358 241.657C38.0853 239.637 37.4696 237.233 38.1858 234.582C38.526 233.327 39.3071 232.346 40.6098 231.879C41.3455 231.615 42.0196 231.663 42.6872 232.117C43.6561 232.78 44.3594 233.645 44.7029 234.746C44.9557 235.557 45.0594 236.413 45.1631 236.921Z" fill="#8F3EE5"/>
<path d="M77.2189 166.785C74.205 165.144 70.8638 167.04 69.6193 169.964C68.1707 173.372 68.5078 177.777 68.8837 181.367C69.7166 189.321 72.6689 196.96 77.4879 203.369C78.5962 204.846 81.1304 203.405 80.0059 201.909C76.1721 196.805 73.5341 190.959 72.3091 184.704C71.7128 181.663 71.486 178.555 71.5994 175.457C71.6578 173.928 71.6999 172.201 72.4193 170.807C73.0221 169.643 74.4124 168.552 75.7476 169.279C77.3939 170.183 78.8684 167.683 77.2189 166.785Z" fill="#E0DDC8"/>
<path d="M111.778 161.225C112.05 155.176 113.434 149.233 115.913 143.693C116.668 142.004 114.157 140.53 113.395 142.232C110.699 148.259 109.16 154.633 108.862 161.225C108.781 163.088 111.697 163.085 111.778 161.225Z" fill="#E0DDC8"/>
<path d="M81.0591 81.5799C78.4665 81.6346 76.4118 79.4531 75.0054 77.2909C73.5665 75.0772 72.3901 72.6382 72.0271 70.0288C71.5929 66.9045 72.3544 63.703 73.7188 60.8554C75.0864 58.0078 77.0341 55.4788 79.079 53.0656C80.6216 51.2445 82.4493 49.3557 84.8313 49.0919C86.8276 48.8699 88.8206 49.9091 90.1234 51.4246C91.4294 52.9401 92.1327 54.8803 92.5702 56.8302C94.2327 64.2435 92.1845 72.384 87.2067 78.1467C85.729 79.8585 83.7716 81.4609 81.4998 81.419" fill="#DA5ED1"/>
<path d="M81.0592 80.7756C78.6642 80.7949 76.898 78.7131 75.7055 76.8855C74.2212 74.6074 72.98 72.0462 72.7564 69.3048C72.2865 63.5421 75.6504 58.4294 79.186 54.1822C80.6411 52.4382 82.3943 50.202 84.8281 49.8931C87.3948 49.5681 89.5337 51.518 90.6226 53.6287C91.773 55.8585 92.2008 58.5195 92.3045 61.0002C92.4082 63.4874 92.123 65.9779 91.4652 68.3814C90.8008 70.8075 89.7703 73.1177 88.3929 75.2284C87.7189 76.2613 86.9638 77.2523 86.1115 78.1468C85.2851 79.0155 84.3258 79.8489 83.1916 80.2897C82.6439 80.5021 82.0865 80.6115 81.4999 80.6083C80.4564 80.6018 80.4564 82.2106 81.4999 82.217C84.4328 82.2331 86.7337 80.0677 88.4318 77.9183C90.1527 75.74 91.4943 73.3075 92.4309 70.7013C93.3578 68.1272 93.8633 65.3955 93.9379 62.6637C94.0124 59.8934 93.6689 56.9943 92.7031 54.3817C91.7115 51.6885 89.7994 49.1756 86.8698 48.4452C83.9369 47.7148 81.3962 49.3461 79.4744 51.3989C78.4698 52.4704 77.5462 53.6191 76.6485 54.7774C75.7087 55.9872 74.8142 57.2357 74.0365 58.5549C72.4355 61.2609 71.3013 64.2725 71.1198 67.4258C70.9383 70.5243 71.8879 73.4974 73.3916 76.1841C74.7105 78.5393 76.4508 81.0523 79.0888 82.0497C79.7175 82.2846 80.3948 82.394 81.0624 82.3876C82.0994 82.3747 82.1027 80.7659 81.0592 80.7756Z" fill="#1B1B63"/>
<path d="M113.719 22.1128C114.763 22.1128 114.763 20.504 113.719 20.504C112.679 20.504 112.676 22.1128 113.719 22.1128Z" fill="#2E3191"/>
<path d="M104.286 95.9243C102.38 94.9269 99.9073 95.757 98.4392 97.324C96.9712 98.8909 96.2971 101.018 95.7786 103.096C95.0365 106.063 94.5504 109.303 95.8013 112.096C97.6355 116.189 102.688 117.974 107.192 117.701C109.882 117.537 112.643 116.732 114.568 114.86C117.394 112.115 117.573 106.935 114.549 104.403C113.282 103.341 111.642 102.807 110.336 101.793C107.909 99.9045 107.348 96.2654 104.286 95.9243Z" fill="#E7BF63"/>
<path d="M104.571 95.4385C102.361 94.3252 99.6642 95.1971 98.0374 96.925C96.1967 98.8781 95.4805 101.642 94.9393 104.19C94.3559 106.948 94.1355 109.911 95.38 112.53C96.3295 114.535 98.1055 116.054 100.105 116.974C102.186 117.933 104.509 118.357 106.797 118.28C109.367 118.19 112.047 117.547 114.118 115.976C115.952 114.586 117.041 112.553 117.274 110.281C117.492 108.19 116.882 105.973 115.408 104.432C114.51 103.495 113.334 102.919 112.209 102.305C111.166 101.735 110.255 101.095 109.519 100.155C108.359 98.6689 107.549 96.6612 105.767 95.7827C105.293 95.5479 104.807 95.4256 104.286 95.3612C103.978 95.3226 103.722 95.6476 103.718 95.9243C103.715 96.259 103.984 96.4488 104.286 96.4874C106.052 96.7094 106.975 98.4405 107.863 99.7661C108.388 100.551 108.949 101.333 109.659 101.961C110.563 102.758 111.658 103.273 112.705 103.856C113.642 104.377 114.526 104.982 115.132 105.876C115.657 106.649 115.981 107.533 116.117 108.454C116.39 110.301 115.907 112.292 114.773 113.785C113.382 115.616 111.075 116.549 108.865 116.942C106.761 117.315 104.561 117.228 102.503 116.658C100.575 116.124 98.7406 115.149 97.4281 113.621C95.8499 111.787 95.461 109.364 95.649 107.025C95.7559 105.703 96.0346 104.403 96.3587 103.119C96.6471 101.977 96.9744 100.831 97.4865 99.7661C98.4392 97.7905 100.212 95.9951 102.574 96.0562C103.07 96.0691 103.556 96.1882 104 96.4102C104.649 96.7351 105.222 95.7667 104.571 95.4385Z" fill="#1B1B63"/>
<path d="M159.916 114.2C158.399 114.126 157.178 116.861 157.064 118.364C156.886 120.742 157.385 123.486 159.423 124.751C161.212 125.861 163.698 125.375 165.276 123.982C166.854 122.589 167.629 120.481 167.859 118.396C167.956 117.527 167.943 116.568 167.405 115.877C166.971 115.32 166.271 115.04 165.594 114.831C163.763 114.271 161.828 114.055 159.916 114.2Z" fill="#E6C161"/>
<path d="M159.916 113.637C158.86 113.618 158.072 114.451 157.554 115.278C156.999 116.163 156.617 117.209 156.51 118.248C156.273 120.504 156.724 123.296 158.574 124.828C160.623 126.524 163.643 126.105 165.591 124.461C166.647 123.57 167.37 122.347 167.836 121.063C168.28 119.837 168.601 118.38 168.439 117.074C168.348 116.327 168.054 115.622 167.46 115.133C166.845 114.625 166.07 114.377 165.312 114.168C163.559 113.685 161.728 113.508 159.916 113.637C159.193 113.689 159.187 114.815 159.916 114.763C161.274 114.667 162.641 114.734 163.98 115.005C164.615 115.133 165.254 115.291 165.863 115.516C166.368 115.7 166.864 115.98 167.117 116.475C167.603 117.431 167.289 118.789 167.042 119.773C166.767 120.874 166.31 121.961 165.587 122.849C164.288 124.439 161.864 125.433 159.916 124.384C158.101 123.406 157.602 121.163 157.599 119.271C157.596 118.29 157.761 117.37 158.189 116.475C158.5 115.828 159.067 114.747 159.916 114.763C160.645 114.776 160.648 113.65 159.916 113.637Z" fill="#1B1B63"/>
<defs>
<linearGradient id="paint0_linear_690_2055" x1="117.663" y1="234.518" x2="117.663" y2="38.2956" gradientUnits="userSpaceOnUse">
<stop offset="0.00713046" stop-color="#E0AE89"/>
<stop offset="0.2751" stop-color="#E081C8"/>
<stop offset="0.705" stop-color="#D666EA"/>
<stop offset="0.791" stop-color="#D251E9"/>
<stop offset="0.9682" stop-color="#C61AE6"/>
<stop offset="0.9987" stop-color="#C410E5"/>
</linearGradient>
<linearGradient id="paint1_linear_690_2055" x1="118.671" y1="209.276" x2="118.671" y2="111.746" gradientUnits="userSpaceOnUse">
<stop offset="0.3377" stop-color="#E4C15F"/>
<stop offset="0.9987" stop-color="#D984B9"/>
</linearGradient>
</defs>
</svg>
