<svg width="420" height="445" viewBox="0 0 420 445" fill="none" xmlns="http://www.w3.org/2000/svg">
<path d="M225.637 443.126H37.1431L55.1432 369.747C36.3324 337.393 26.503 282.895 26.503 278.007C26.503 271.454 4.68028 227.669 2.74883 221.488C-1.34667 208.382 11.759 192.409 32.2369 196.915C52.7189 201.421 75.2605 254.32 91.6427 271.522C159.219 241.078 300.352 181.583 327.547 190.43C361.54 201.488 332.904 229.012 324.643 236.043C319.165 240.705 277.308 260.327 255.874 270.703C259.988 270.702 274.304 269.064 282.495 280.942C282.495 280.942 293.144 294.867 282.495 304.696L280.904 306.514C278.14 311.782 313.632 297.437 318.536 322.716C319.34 326.856 313.714 338.707 306.643 347.543C315.268 346.177 325.067 359.819 316.143 374.043C300.143 399.543 288.709 406.198 269.05 415.617C255.819 421.957 244.076 424.762 231.781 423.399L225.637 443.126Z" fill="url(#paint0_linear_691_2362)"/>
<path d="M282.495 304.696C271.847 314.525 313.212 295.276 318.536 322.716C319.34 326.856 313.714 338.707 306.643 347.543M282.495 304.696C293.144 294.867 282.495 280.942 282.495 280.942C274.304 269.064 259.988 270.702 255.874 270.703M282.495 304.696L279.629 307.972L261.199 325.583L249.977 333.903C241.658 340.07 232.564 345.116 222.928 348.909L185.431 363.672M255.874 270.703C277.308 260.327 319.165 240.705 324.643 236.043C332.904 229.012 361.54 201.488 327.547 190.43C300.352 181.583 159.219 241.078 91.6427 271.522M255.874 270.703C246.045 271.522 219.424 280.942 190.345 298.143C143.958 325.583 143.656 343.194 146.113 354.252C148.778 366.241 171.506 365.583 185.431 363.672M185.431 363.672C177.649 373.092 177.003 382.102 177.649 388.245C179.174 396.414 188.091 406.952 217.856 401.283M91.6427 271.522C75.2605 254.32 52.7189 201.421 32.2369 196.915C11.759 192.409 -1.34667 208.382 2.74883 221.488C4.68028 227.669 26.503 271.454 26.503 278.007C26.503 282.895 36.3324 337.393 55.1432 369.747M91.6427 271.522C99.1512 278.621 114.332 293.883 114.987 298.143M91.6427 401.283C80.3002 398.785 62.7557 381.223 55.1432 369.747M55.1432 369.747L37.1431 443.126H225.637L231.781 423.399M243.178 228.518C243.997 233.979 248.093 246.047 257.922 250.634M306.643 347.543C315.268 346.177 325.067 359.819 316.143 374.043C300.143 399.543 288.709 406.198 269.05 415.617C255.819 421.957 244.076 424.762 231.781 423.399M306.643 347.543C281.492 388.43 243.658 396.368 217.856 401.283M231.781 423.399C227.837 422.962 214.842 420.227 213.69 418.484C210.71 414.662 207.699 407.836 217.856 401.283M205.143 311.043C207.118 319.825 213.426 337.389 222.856 337.389M243.178 357.043C243.987 363.376 247.659 376.243 255.874 377.043M261.199 394.043C262.396 397.876 266.561 405.743 273.643 406.543" stroke="#311969" stroke-width="3" stroke-linecap="round"/>
<path d="M182.143 376.542C200.643 373.542 224.643 392.042 199.143 399.542M220.143 404.542C231.143 402.542 242.643 414.042 224.643 419.042M151.143 336.042C163.643 330.042 189.143 344.542 169.143 361.542M23.1431 249.543C32.9724 247.905 39.1431 239.043 23.1431 202.543" stroke="#F6EFE5" stroke-width="3" stroke-linecap="round"/>
<path d="M6.14307 203.543V186.976L84.4294 153.079H347.756V170.875L291.295 206.042H47.1431C44.2963 201.664 32.7796 195.543 27.6431 195.543C22.1431 195.543 14.6431 196.543 10.1431 199.543L6.14307 203.543Z" fill="#16E6CA"/>
<path d="M6.14307 186.976V203.543L10.1431 199.543C14.6431 196.543 22.1431 195.543 27.6431 195.543C32.7796 195.543 44.2963 201.664 47.1431 206.042H291.295M6.14307 186.976L84.4294 153.079H347.756M6.14307 186.976H291.295M291.295 206.042L347.756 170.875V153.079M291.295 206.042V186.976M347.756 153.079L291.295 186.976" stroke="#2A307F" stroke-width="2"/>
<path d="M6.14307 186.976V203.543L10.1431 199.543C14.6431 196.543 22.1431 195.543 27.6431 195.543C32.7796 195.543 44.2963 201.664 47.1431 206.042H291.295M6.14307 186.976L84.4294 153.079H347.756M6.14307 186.976H291.295M291.295 206.042L347.756 170.875V153.079M291.295 206.042V186.976M347.756 153.079L291.295 186.976" stroke="black" stroke-opacity="0.2" stroke-width="2"/>
<g filter="url(#filter0_d_691_2362)">
<path d="M110.611 55.3249L87.414 147.709C86.6213 150.866 89.0085 153.927 92.2635 153.927H342.818C345.152 153.927 347.175 152.313 347.693 150.038L368.75 57.6537C369.464 54.5241 367.085 51.5425 363.875 51.5425H115.461C113.168 51.5425 111.17 53.1015 110.611 55.3249Z" fill="#FF9D07"/>
<path d="M110.611 55.3249L87.414 147.709C86.6213 150.866 89.0085 153.927 92.2635 153.927H342.818C345.152 153.927 347.175 152.313 347.693 150.038L368.75 57.6537C369.464 54.5241 367.085 51.5425 363.875 51.5425H115.461C113.168 51.5425 111.17 53.1015 110.611 55.3249Z" stroke="#2A307F" stroke-width="2"/>
<path d="M110.611 55.3249L87.414 147.709C86.6213 150.866 89.0085 153.927 92.2635 153.927H342.818C345.152 153.927 347.175 152.313 347.693 150.038L368.75 57.6537C369.464 54.5241 367.085 51.5425 363.875 51.5425H115.461C113.168 51.5425 111.17 53.1015 110.611 55.3249Z" stroke="black" stroke-opacity="0.2" stroke-width="2"/>
</g>
<path d="M87.7506 179.349H47.8958L70.1955 168.968L92.4952 158.587H127.605H157.971H186.439H217.279H257.608H296.988H323.084L306.241 168.968L289.397 179.349H263.302H226.294H193.081H159.869H125.708H87.7506Z" fill="#99FFF1"/>
<path d="M87.7506 179.349H47.8958L70.1955 168.968M87.7506 179.349L127.605 158.587M87.7506 179.349H125.708M127.605 158.587H92.4952L70.1955 168.968M127.605 158.587H157.971M263.302 179.349H289.397L306.241 168.968M263.302 179.349L296.988 158.587M263.302 179.349H226.294M296.988 158.587H323.084L306.241 168.968M296.988 158.587H257.608M226.294 179.349L257.608 158.587M226.294 179.349H193.081M257.608 158.587H217.279M193.081 179.349L217.279 158.587M193.081 179.349H159.869M217.279 158.587H186.439M159.869 179.349L186.439 158.587M159.869 179.349H125.708M186.439 158.587H157.971M125.708 179.349L157.971 158.587M70.1955 168.968H306.241" stroke="#2A307F" stroke-width="2"/>
<path d="M87.7506 179.349H47.8958L70.1955 168.968M87.7506 179.349L127.605 158.587M87.7506 179.349H125.708M127.605 158.587H92.4952L70.1955 168.968M127.605 158.587H157.971M263.302 179.349H289.397L306.241 168.968M263.302 179.349L296.988 158.587M263.302 179.349H226.294M296.988 158.587H323.084L306.241 168.968M296.988 158.587H257.608M226.294 179.349L257.608 158.587M226.294 179.349H193.081M257.608 158.587H217.279M193.081 179.349L217.279 158.587M193.081 179.349H159.869M217.279 158.587H186.439M159.869 179.349L186.439 158.587M159.869 179.349H125.708M186.439 158.587H157.971M125.708 179.349L157.971 158.587M70.1955 168.968H306.241" stroke="black" stroke-opacity="0.2" stroke-width="2"/>
<path d="M336.084 146.543H98.1431L119.739 59.5425H358.143L336.084 146.543Z" fill="#005091"/>
<path d="M336.084 146.543H98.1431L119.739 59.5425H358.143L336.084 146.543Z" stroke="#2A307F" stroke-width="2"/>
<path d="M336.084 146.543H98.1431L119.739 59.5425H358.143L336.084 146.543Z" stroke="black" stroke-opacity="0.2" stroke-width="2"/>
<g filter="url(#filter1_d_691_2362)">
<path d="M204.468 93.2929C171.446 96.3436 157.813 129.873 155.124 146.256C172.205 146.256 196.402 146.398 213.009 146.256C245.432 145.98 275.008 147.259 274.689 146.256C264.725 114.902 245.747 89.4796 204.468 93.2929Z" fill="#16E5CA"/>
</g>
<path d="M204.943 142.063C192.346 143.878 167.777 142.487 156.548 139.945L155.124 146.724H275.163C268.995 125.539 255.71 109.862 255.71 111.133C255.71 131.686 219.651 139.945 204.943 142.063Z" fill="url(#paint1_linear_691_2362)"/>
<ellipse cx="187.862" cy="115.37" rx="2.37231" ry="2.11853" fill="#235466"/>
<ellipse cx="225.819" cy="113.675" rx="2.37231" ry="2.11853" fill="#235466"/>
<path d="M199.724 118.006C201.696 119.143 206.543 120.463 210.162 116.641" stroke="#235466" stroke-width="1.5" stroke-linecap="round" stroke-linejoin="round"/>
<path d="M199.724 118.006C201.696 119.143 206.543 120.463 210.162 116.641" stroke="black" stroke-opacity="0.2" stroke-width="1.5" stroke-linecap="round" stroke-linejoin="round"/>
<path d="M56.6431 55.1332L50.1431 48.8851L69.6431 31.7029L52.1431 27.5375L98.1431 14L75.1431 58.7779V37.951L56.6431 55.1332Z" fill="#FFFFFE" stroke="#081080" stroke-width="2"/>
<path d="M82.1932 123.607C81.3191 124.723 80.0441 125.387 79.0956 126.092C78.213 126.747 76.1026 127.892 74.98 128.343C72.0641 129.516 69.1808 130.68 65.8064 128.334C64.3262 127.305 64.29 127.021 63.4157 126.065C61.9544 124.466 61.6064 122.452 61.0085 120.379C60.3522 118.103 60.27 115.533 60.5907 113.231C60.8205 111.582 61.0496 109.791 61.427 108.023C61.8045 106.254 61.9929 105.314 62.4021 104.101C63.4494 100.997 65.044 98.4939 66.8865 95.9221C68.3042 93.9432 69.9516 92.1632 71.3625 90.2045C72.2197 89.0144 73.5628 87.5322 74.6799 86.2769C76.3584 84.3907 77.7393 84.0667 80.3269 84.3161C81.1977 84.4 82.2887 85.9893 82.5719 86.9712C83.0969 88.7914 82.7026 89.6557 82.3851 91.4517C81.163 93.3685 79.2511 93.92 77.0335 94.9626C74.5195 95.6878 72.4719 96.338 69.7885 95.9855C67.4222 95.6747 63.4089 93.707 62.0123 91.5902C60.5168 89.9622 59.6798 88.4322 59.0558 86.4686C56.4312 78.209 59.3401 73.6946 59.0558 72.709" stroke="#F6F199" stroke-width="3" stroke-linecap="round"/>
<defs>
<filter id="filter0_d_691_2362" x="36.2605" y="0.542542" width="383.617" height="204.384" filterUnits="userSpaceOnUse" color-interpolation-filters="sRGB">
<feFlood flood-opacity="0" result="BackgroundImageFix"/>
<feColorMatrix in="SourceAlpha" type="matrix" values="0 0 0 0 0 0 0 0 0 0 0 0 0 0 0 0 0 0 127 0" result="hardAlpha"/>
<feOffset/>
<feGaussianBlur stdDeviation="25"/>
<feComposite in2="hardAlpha" operator="out"/>
<feColorMatrix type="matrix" values="0 0 0 0 0.0862745 0 0 0 0 0.898039 0 0 0 0 0.792157 0 0 0 0.5 0"/>
<feBlend mode="normal" in2="BackgroundImageFix" result="effect1_dropShadow_691_2362"/>
<feBlend mode="normal" in="SourceGraphic" in2="effect1_dropShadow_691_2362" result="shape"/>
</filter>
<filter id="filter1_d_691_2362" x="115.124" y="52.9131" width="199.567" height="133.733" filterUnits="userSpaceOnUse" color-interpolation-filters="sRGB">
<feFlood flood-opacity="0" result="BackgroundImageFix"/>
<feColorMatrix in="SourceAlpha" type="matrix" values="0 0 0 0 0 0 0 0 0 0 0 0 0 0 0 0 0 0 127 0" result="hardAlpha"/>
<feOffset/>
<feGaussianBlur stdDeviation="20"/>
<feComposite in2="hardAlpha" operator="out"/>
<feColorMatrix type="matrix" values="0 0 0 0 0.0862745 0 0 0 0 0.898039 0 0 0 0 0.792157 0 0 0 1 0"/>
<feBlend mode="normal" in2="BackgroundImageFix" result="effect1_dropShadow_691_2362"/>
<feBlend mode="normal" in="SourceGraphic" in2="effect1_dropShadow_691_2362" result="shape"/>
</filter>
<linearGradient id="paint0_linear_691_2362" x1="38.0613" y1="368.518" x2="331.713" y2="189.543" gradientUnits="userSpaceOnUse">
<stop stop-color="#FD9D06"/>
<stop offset="0.661458" stop-color="#FF9C07"/>
<stop offset="0.765625" stop-color="#FF775B"/>
<stop offset="0.869792" stop-color="#FD636D"/>
<stop offset="1" stop-color="#753E8B"/>
</linearGradient>
<linearGradient id="paint1_linear_691_2362" x1="155.124" y1="143.334" x2="270.292" y2="134.843" gradientUnits="userSpaceOnUse">
<stop stop-color="#19D6C8"/>
<stop offset="1" stop-color="#18B9C4"/>
</linearGradient>
</defs>
</svg>
