<svg width="897" height="303" viewBox="0 0 897 303" fill="none" xmlns="http://www.w3.org/2000/svg">
<mask id="mask0_694_2437" style="mask-type:luminance" maskUnits="userSpaceOnUse" x="0" y="0" width="897" height="303">
<path d="M897 0H0V303H897V0Z" fill="white"/>
</mask>
<g mask="url(#mask0_694_2437)">
<path d="M821.228 31.7775C851.728 37.6099 899.737 43.0118 899.737 43.0118L353.211 47.3797C353.211 47.3797 373.073 42.8044 385.882 40.5146C405.174 37.0656 416.135 36.5371 435.52 33.9621C465.489 29.9802 482.592 30.2783 512.255 23.6639C539.636 17.5592 553.688 5.6106 581.395 2.44523C598.332 0.50972 608.118 -0.547324 624.954 2.44523C642.112 5.49539 650.265 15.7562 667.501 18.0474C677.728 19.4069 683.58 18.9475 693.84 18.0474C709.379 16.6851 717.553 7.99831 733.094 9.31026C744.391 10.2636 750.174 14.9123 761.206 18.0474C784.436 24.6475 797.669 27.2728 821.228 31.7775Z" fill="#150C9D"/>
<path d="M292.226 36.9072C178.014 37.512 0.288086 55.1678 0.288086 55.1678V303H897V46.0375C897 46.0375 676.825 49.7544 535.82 46.0375C451.246 43.8082 403.961 37.3032 319.362 36.9072C308.764 36.8568 302.824 36.851 292.226 36.9072Z" fill="#190CA6"/>
<path d="M37.5222 13.5456C23.3894 9.37648 0.288086 7.34448 0.288086 7.34448V60.0527H213.05C213.05 60.0527 183.616 50.6127 164.865 44.2402C147.209 38.2393 138.206 31.5629 119.811 28.4278C101.387 25.2883 90.1379 32.6674 71.9386 28.4278C57.6632 25.1011 51.5771 17.6917 37.5222 13.5456Z" fill="url(#paint0_linear_694_2437)"/>
<path d="M37.5222 39.6118C23.3894 35.4426 0.288086 33.4106 0.288086 33.4106V86.1188H213.05C213.05 86.1188 183.616 76.6789 164.865 70.3064C147.209 64.3054 138.206 57.629 119.811 54.4939C101.387 51.3545 90.1379 58.7336 71.9386 54.4939C57.6632 51.1672 51.5771 43.7579 37.5222 39.6118Z" fill="url(#paint1_linear_694_2437)"/>
<path d="M34.7448 224.988L53.7205 128.2C53.781 127.895 54.2146 127.888 54.2838 128.192L79.2592 236.629C79.3096 236.847 79.1036 237.036 78.8918 236.968L63.2379 232.015C63.0204 231.946 62.8144 232.145 62.872 232.364L72.2771 267.487C72.3188 267.639 72.2266 267.798 72.074 267.84C72.0552 267.844 72.0365 267.848 72.0178 267.848L37.1634 270.139C37.005 270.15 36.8667 270.029 36.8566 269.87C36.8551 269.838 36.858 269.805 36.8667 269.775L45.7661 237.275C45.792 237.18 45.7675 237.076 45.6998 237.004L34.8168 225.238C34.7534 225.17 34.7261 225.078 34.7448 224.988ZM95.5973 239.609L123.324 130.761C123.399 130.469 123.815 130.473 123.884 130.767L149.011 239.615C149.053 239.795 148.916 239.968 148.732 239.968H134.24C134.08 239.968 133.952 240.097 133.952 240.257C133.952 240.282 133.955 240.307 133.962 240.331L141.974 270.366C142.015 270.52 141.924 270.677 141.77 270.718C141.751 270.723 141.734 270.726 141.715 270.727L106.744 273.02C106.585 273.03 106.447 272.909 106.437 272.75C106.436 272.719 106.439 272.686 106.447 272.655L115.318 240.332C115.36 240.178 115.269 240.019 115.116 239.978C115.092 239.97 115.066 239.968 115.04 239.968H95.8754C95.7169 239.968 95.5872 239.839 95.5872 239.68C95.5872 239.657 95.5901 239.632 95.5973 239.609ZM175.309 195.57L203.808 63.3175C203.874 63.0121 204.311 63.015 204.371 63.3218L240.221 243.48C240.257 243.656 240.123 243.821 239.944 243.824L221.51 244.168C221.352 244.171 221.223 244.302 221.226 244.461C221.226 244.487 221.231 244.511 221.238 244.536L232.072 282.274C232.117 282.426 232.029 282.586 231.876 282.631C231.857 282.637 231.838 282.64 231.82 282.641L187.627 286.364C187.449 286.378 187.301 286.23 187.315 286.053L193.318 215.379C193.324 215.298 193.296 215.219 193.242 215.16L175.378 195.827C175.315 195.758 175.289 195.663 175.309 195.57Z" fill="#051457"/>
<path d="M398.296 51.1974C510.98 46.553 574.182 43.6612 686.985 42.1347C772.535 40.9769 906.075 42.1347 906.075 42.1347L885.846 94.1747C885.846 94.1747 714.258 96.2182 604.356 94.1747C486.032 91.9742 414.269 113.394 301.608 82.481C284.228 77.7127 253.312 76.9293 257.721 68.7394C261.379 58.7421 281.15 61.114 301.608 56.7533L398.296 51.1974Z" fill="url(#paint2_linear_694_2437)"/>
<path d="M383.581 268.397L403.197 104.748C403.232 104.45 403.643 104.398 403.752 104.677L463.258 257.672C463.31 257.808 463.253 257.962 463.124 258.031L433.127 274.012C433.006 274.077 432.947 274.218 432.987 274.349L436.928 287.477C436.974 287.629 436.886 287.791 436.732 287.837C436.719 287.841 436.705 287.844 436.692 287.846L399.969 292.98C399.779 293.007 399.616 292.841 399.645 292.65L403.527 267.629C403.556 267.446 403.406 267.284 403.222 267.298L383.888 268.718C383.707 268.731 383.559 268.575 383.581 268.397ZM467.774 239.057L494.04 68.7826C494.084 68.4917 494.486 68.4485 494.593 68.725L552.841 220.202C552.893 220.34 552.834 220.496 552.701 220.562L522.177 235.973C522.053 236.035 521.991 236.179 522.032 236.311L525.846 249.278C525.896 249.449 525.781 249.623 525.605 249.645L488.33 254.304C488.171 254.324 488.027 254.21 488.007 254.052C488.007 254.046 488.006 254.042 488.006 254.036L487.22 241.487C487.212 241.346 487.101 241.23 486.961 241.217L468.032 239.389C467.872 239.373 467.756 239.23 467.772 239.072C467.772 239.066 467.772 239.062 467.774 239.057Z" fill="#051457"/>
<path d="M31.7199 224.988L50.7561 128.196C50.8166 127.891 51.2488 127.884 51.3194 128.186L76.3769 236.628C76.4273 236.845 76.2227 237.034 76.0095 236.968L60.3023 232.014C60.0848 231.945 59.8788 232.143 59.9379 232.362L69.3732 267.485C69.4149 267.638 69.3242 267.796 69.17 267.838C69.1513 267.842 69.1326 267.847 69.1139 267.847L34.1457 270.138C33.9873 270.148 33.849 270.027 33.8389 269.869C33.8374 269.837 33.8403 269.804 33.849 269.774L42.7758 237.273C42.8017 237.177 42.7772 237.074 42.7095 237.001L31.7919 225.237C31.7285 225.17 31.7012 225.078 31.7199 224.988ZM93.333 248.532L120.376 130.974C120.443 130.676 120.868 130.676 120.937 130.974L145.986 239.759C146.027 239.939 145.89 240.112 145.705 240.112H131.253C131.094 240.112 130.965 240.24 130.965 240.398C130.965 240.423 130.968 240.449 130.975 240.473L138.967 270.51C139.008 270.664 138.916 270.821 138.764 270.862C138.745 270.867 138.726 270.871 138.707 270.871L103.827 273.164C103.669 273.174 103.53 273.053 103.52 272.894C103.519 272.863 103.522 272.83 103.53 272.799L112.313 240.712C112.378 240.475 112.136 240.271 111.913 240.375L93.7335 248.857C93.5174 248.958 93.2783 248.765 93.333 248.532ZM170.597 195.395L205.495 63.5507C205.573 63.2555 205.995 63.2685 206.055 63.5666L242.655 244.514C242.691 244.693 242.555 244.858 242.373 244.858H221.545C221.352 244.858 221.212 245.045 221.268 245.23L232.665 283.144C232.719 283.322 232.592 283.504 232.406 283.515L182.512 286.418C182.333 286.429 182.187 286.276 182.209 286.097L190.447 215.563C190.459 215.476 190.429 215.388 190.365 215.326L170.674 195.673C170.6 195.599 170.571 195.494 170.597 195.395ZM341.366 209.305L364.398 46.2118C364.44 45.9151 364.85 45.8719 364.954 46.1527L421.249 200.248C421.299 200.385 421.239 200.537 421.108 200.604L390.784 215.947C390.661 216.008 390.599 216.148 390.637 216.281L394.303 229.478C394.349 229.648 394.234 229.821 394.058 229.841L357.237 234.207C357.08 234.226 356.938 234.115 356.917 233.957C356.914 233.928 356.914 233.899 356.92 233.872L361.324 208.953C361.356 208.77 361.21 208.606 361.026 208.615L341.667 209.632C341.508 209.64 341.371 209.518 341.363 209.359C341.363 209.341 341.363 209.323 341.366 209.305ZM428.095 180.675L454.361 10.399C454.406 10.1067 454.808 10.0649 454.915 10.3414L513.161 161.82C513.215 161.957 513.156 162.112 513.023 162.18L482.499 177.589C482.375 177.651 482.313 177.795 482.353 177.927L486.168 190.894C486.218 191.066 486.103 191.24 485.927 191.262L448.651 195.92C448.486 195.942 448.337 195.818 448.327 195.652L447.542 183.103C447.534 182.962 447.423 182.847 447.281 182.834L428.353 181.006C428.195 180.991 428.078 180.849 428.094 180.69C428.094 180.685 428.095 180.68 428.095 180.675Z" fill="#06063F"/>
<path d="M206.232 238.535L232.533 160.639C232.619 160.38 232.985 160.377 233.077 160.633L262.322 242.509C262.389 242.697 262.25 242.894 262.05 242.894H245.608C245.391 242.894 245.251 243.126 245.353 243.317L254.244 260.066C254.343 260.254 254.212 260.482 253.999 260.488L214.223 261.798C214.064 261.804 213.932 261.68 213.926 261.522C213.924 261.486 213.93 261.448 213.942 261.415L220.365 243.183C220.418 243.034 220.339 242.869 220.189 242.816C220.183 242.815 220.178 242.812 220.172 242.81L206.427 238.905C206.272 238.86 206.185 238.7 206.228 238.546C206.229 238.542 206.231 238.539 206.232 238.535Z" fill="#051457"/>
<path d="M297.619 244.57L306.457 179.995C306.501 179.666 306.978 179.663 307.027 179.992L316.945 246.563C316.951 246.596 316.961 246.628 316.977 246.657L324.472 260.73C324.572 260.918 324.44 261.146 324.227 261.153L291.403 262.23C291.245 262.236 291.112 262.112 291.107 261.954C291.105 261.918 291.111 261.88 291.123 261.847L296.498 246.635C296.504 246.621 296.511 246.605 296.519 246.592L297.586 244.672C297.603 244.641 297.615 244.606 297.619 244.57Z" fill="#040F43"/>
<path d="M321.099 263.868L329.937 199.293C329.981 198.963 330.458 198.96 330.507 199.29L340.425 265.861C340.431 265.894 340.441 265.926 340.457 265.954L347.952 280.027C348.052 280.216 347.92 280.443 347.707 280.451L314.883 281.528C314.725 281.534 314.592 281.41 314.587 281.251C314.585 281.215 314.591 281.178 314.602 281.145L319.978 265.933C319.984 265.918 319.991 265.903 319.999 265.89L321.066 263.97C321.083 263.938 321.095 263.904 321.099 263.868Z" fill="#040F43"/>
<path d="M223.531 255.505C124.112 266.932 0.288086 249.426 0.288086 249.426V303H897V65.5092C897 65.5092 813.382 57.4432 760.734 65.5092C710.412 73.2196 682.038 81.7379 635.772 103.73C582.972 128.83 488.955 173.656 436.485 199.495C344.592 244.746 324.579 243.89 223.531 255.505Z" fill="#050A4C"/>
</g>
<mask id="mask1_694_2437" style="mask-type:luminance" maskUnits="userSpaceOnUse" x="712" y="27" width="51" height="51">
<path d="M762.421 27.8662H712.435V77.8396H762.421V27.8662Z" fill="white"/>
</mask>
<g mask="url(#mask1_694_2437)">
<mask id="mask2_694_2437" style="mask-type:luminance" maskUnits="userSpaceOnUse" x="712" y="27" width="51" height="51">
<path d="M762.421 27.8662H712.435V77.8396H762.421V27.8662Z" fill="white"/>
</mask>
<g mask="url(#mask2_694_2437)">
<path d="M749.847 31.6985C749.877 31.6898 749.908 31.6797 749.937 31.6711C750.009 31.8079 750.095 31.939 750.15 32.083C750.327 32.5496 750.52 33.0118 750.654 33.49C750.869 34.2604 751.275 34.9862 751.214 35.8273C751.2 36.0332 751.141 36.1542 750.948 36.2074C750.606 36.3011 750.271 36.4191 749.924 36.4811C749.33 36.5891 749.007 36.35 748.891 35.7581C748.873 35.6732 748.86 35.5868 748.853 35.5018C748.814 34.9329 748.496 34.5312 748.065 34.2057C747.588 33.8471 747.113 33.4828 746.608 33.1645C746.196 32.9053 745.752 32.6864 745.302 32.4948C744.968 32.3523 744.635 32.4819 744.379 32.7123C744.115 32.9499 744.036 33.2855 744.121 33.621C744.213 33.9839 744.337 34.3439 744.49 34.6867C744.849 35.4946 745.222 36.2881 745.893 36.9102C746.327 37.3135 746.838 37.5669 747.354 37.8146C747.826 38.0422 748.11 38.3532 748.09 38.9019C748.081 39.1712 748.145 39.4448 748.109 39.7084C748.065 40.0252 748.012 40.3679 747.855 40.6358C747.574 41.111 747.23 41.5532 746.877 41.9794C746.718 42.171 746.498 42.3452 746.269 42.4374C745.676 42.6779 745.072 42.9097 744.454 43.0667C744.084 43.1603 743.66 43.1819 743.29 43.1027C742.676 42.9702 742.089 42.7168 741.482 42.5396C741.139 42.4403 740.785 42.3553 740.431 42.3294C739.932 42.2934 739.424 42.2804 738.928 42.3308C738.348 42.3899 737.776 42.5267 737.2 42.6332C736.975 42.675 736.752 42.7585 736.525 42.7628C736.026 42.7715 735.523 42.7614 735.026 42.7196C734.346 42.6635 733.668 42.5728 732.989 42.4935C732.655 42.4547 732.324 42.3985 731.989 42.3611C731.377 42.2934 730.765 42.2329 730.151 42.1724C730.076 42.1652 729.999 42.1666 729.924 42.1753C729.67 42.2055 729.418 42.243 729.164 42.2718C728.816 42.3107 728.462 42.3222 728.117 42.387C727.738 42.459 727.372 42.5958 726.995 42.6721C726.458 42.783 725.925 42.8881 725.424 43.133C724.764 43.457 724.075 43.7263 723.428 44.0719C723.073 44.262 722.795 44.5903 722.449 44.8035C721.635 45.3046 721.017 46.0045 720.419 46.7246C720.073 47.1394 719.752 47.5757 719.443 48.0193C719.139 48.4527 718.836 48.892 718.584 49.3557C718.293 49.8871 718.725 50.4315 719.203 50.3681C719.365 50.3465 719.53 50.3681 719.695 50.3609C720.318 50.3335 720.516 50.4415 720.738 51.0075C721.141 52.0343 721.53 53.0683 721.922 54.0994C721.985 54.2665 722.066 54.4335 722.09 54.6078C722.21 55.4301 721.985 56.1789 721.52 56.85C721.124 57.4203 720.905 58.0425 720.883 58.7308C720.853 59.7115 720.825 60.6923 720.827 61.673C720.828 62.9216 720.856 64.1701 720.884 65.4187C720.89 65.6823 720.932 65.9487 720.995 66.2036C721.126 66.735 721.35 67.239 721.298 67.8151C721.268 68.1477 721.33 68.5006 721.41 68.8289C721.53 69.3142 721.756 69.7693 721.703 70.2949C721.68 70.5254 721.729 70.7702 721.783 70.9992C721.87 71.365 722.024 71.7163 722.086 72.085C722.182 72.6654 722.364 73.1925 722.728 73.6663C723.142 74.2034 723.719 74.4295 724.316 74.2293C724.827 74.058 724.973 73.6907 724.706 73.2155C724.539 72.9188 724.35 72.6337 724.186 72.3356C723.866 71.7509 723.689 71.1259 723.547 70.4706C723.402 69.8111 723.228 69.176 723.234 68.4876C723.238 68.0757 723.06 67.6639 722.973 67.2505C722.921 67.0014 722.854 66.7494 722.852 66.4974C722.842 64.5619 722.87 62.6263 722.835 60.6908C722.822 59.9621 723.083 59.3429 723.446 58.7726C723.84 58.1505 724.382 57.6205 724.777 56.9984C725.222 56.2999 725.621 55.5626 725.949 54.8022C726.129 54.3846 726.403 54.3399 726.755 54.3198C727.024 54.3039 727.182 54.4249 727.185 54.7014C727.191 55.4733 727.345 56.2682 726.838 56.9624C726.816 56.9926 726.792 57.0286 726.788 57.0632C726.729 57.6421 726.538 58.1821 726.334 58.7222C726.164 59.1715 726.164 59.6237 726.482 60.0356C726.749 60.3812 727.014 60.7283 727.249 61.0941C728.083 62.4031 728.895 63.7266 729.731 65.0342C730.689 66.5334 731.635 68.0412 732.646 69.5043C732.989 70.0012 733.444 70.4678 734.103 70.5988C734.417 70.6622 734.733 70.7313 735.052 70.7543C735.366 70.7774 735.55 70.5585 735.689 70.305C735.81 70.0847 735.843 69.8716 735.663 69.6527C735.341 69.2609 734.931 68.9974 734.477 68.7972C733.951 68.5668 733.571 68.178 733.269 67.7099C732.344 66.2799 731.438 64.8369 730.504 63.4112C730.03 62.6883 729.687 61.8933 729.53 61.0696C729.356 60.1522 729.516 59.2219 729.919 58.3391C730.236 57.6464 730.576 56.9523 730.651 56.1717C730.677 55.8996 730.859 55.7512 731.115 55.7527C732.936 55.7613 734.757 55.757 736.576 55.816C737.1 55.8333 737.625 56.0277 738.137 56.1761C738.617 56.3143 739.079 56.5073 739.556 56.6556C739.859 56.7492 740.164 56.876 740.291 57.1553C740.48 57.5715 740.602 58.0209 740.717 58.4644C740.802 58.7913 740.795 59.1456 740.896 59.4667C741.098 60.1076 741.197 60.7513 741.2 61.4253C741.201 61.804 741.344 62.1828 741.413 62.563C741.479 62.9345 741.544 63.3061 741.589 63.6805C741.639 64.1053 741.642 64.5359 741.711 64.9579C741.775 65.3467 741.963 65.724 741.982 66.1114C742.03 67.0676 742.42 67.9216 742.688 68.8145C742.871 69.4251 743.258 69.9738 743.218 70.6535C743.206 70.8465 743.264 71.0481 743.307 71.2411C743.486 72.0274 743.814 72.7403 744.337 73.361C744.748 73.8477 745.374 73.986 745.87 73.6418C746.128 73.4632 746.334 73.5122 746.554 73.6706C746.727 73.7944 746.89 73.9312 747.067 74.045C747.192 74.1256 747.354 74.1833 747.429 73.9888C747.551 73.6663 747.803 73.6519 748.087 73.6562C748.443 73.6605 748.51 73.5582 748.332 73.2501C748.172 72.9721 748 72.6884 747.78 72.4594C747.286 71.9468 747.176 71.2728 746.976 70.642C746.858 70.269 746.847 69.8615 746.757 69.477C746.641 68.9729 746.495 68.4761 746.358 67.9764C746.086 66.9884 745.812 65.9991 745.537 65.0126C745.47 64.7678 745.395 64.5244 745.318 64.2825C745.137 63.7093 744.935 63.1405 744.771 62.5615C744.582 61.8933 744.412 61.2193 744.261 60.5411C744.154 60.0644 743.912 59.6295 743.943 59.1053C743.971 58.5998 743.807 58.126 743.482 57.6925C743.349 57.5168 743.372 57.1669 743.431 56.9235C743.493 56.6643 743.649 56.4065 743.823 56.1977C744.529 55.3523 745.259 54.5257 745.979 53.6919C746.341 53.2742 746.707 52.8595 747.061 52.4347C747.391 52.0415 747.704 51.6339 748.031 51.2379C748.315 50.8923 748.608 50.5553 748.895 50.2111C749.467 49.5227 750.056 48.8488 750.602 48.1402C751.088 47.5109 751.6 46.883 751.96 46.1831C752.318 45.4904 752.509 44.7113 752.751 43.9625C752.913 43.4627 753.016 43.3605 753.551 43.3619C753.984 43.3634 754.418 43.3835 754.852 43.3835C755.856 43.3835 756.674 43.0264 757.164 42.109C757.398 41.6698 757.614 41.2234 757.518 40.6862C757.384 39.9431 756.851 39.5341 756.273 39.1813C755.531 38.7262 754.88 38.1919 754.415 37.4445C754.186 37.0758 754.043 36.6496 753.663 36.3817C753.438 36.2219 753.397 36.0116 753.549 35.7538C753.624 35.6285 753.626 35.46 753.659 35.3103C753.715 35.0582 753.741 34.7947 753.832 34.5556C754.015 34.0674 754.153 33.5677 754.421 33.0997C754.611 32.7656 754.715 32.4588 755.125 32.3364C755.325 32.2759 755.461 32.0614 755.39 31.8194C755.324 31.589 755.127 31.566 754.921 31.5804C754.885 31.5832 754.847 31.5688 754.751 31.5516C754.775 31.3499 754.791 31.157 754.823 30.9654C754.866 30.699 754.735 30.4628 754.514 30.4297C754.314 30.398 754.136 30.5507 754.095 30.8157C754.072 30.9669 754.085 31.1224 754.082 31.2765C754.074 31.7143 753.928 31.8669 753.503 31.9332C753.366 31.9548 753.212 32.0081 753.116 32.0988C753.031 32.178 752.952 32.3523 752.985 32.443C753.024 32.5524 753.175 32.6388 753.296 32.6936C753.381 32.7325 753.499 32.7008 753.641 32.7008C753.641 32.9283 753.683 33.1371 753.634 33.32C753.476 33.9148 753.287 34.5024 753.101 35.0885C753.064 35.2037 753 35.3218 752.918 35.4111C752.715 35.63 752.41 35.5796 752.29 35.3074C752.089 34.8509 751.893 34.3915 751.711 33.9263C751.55 33.5159 751.39 33.1011 751.273 32.6777C751.223 32.4934 751.252 32.2716 751.301 32.0801C751.364 31.8324 751.482 31.5991 751.576 31.36C751.635 31.2103 751.698 31.0605 751.749 30.9078C751.841 30.6299 751.949 30.3548 752.002 30.0697C752.019 29.9761 751.907 29.786 751.821 29.7615C751.713 29.7327 751.524 29.7917 751.452 29.8796C751.335 30.0236 751.281 30.2195 751.211 30.398C751.138 30.5852 751.079 30.7782 751.014 30.9683C750.954 31.1426 750.844 31.2607 750.648 31.2189C750.446 31.1757 750.295 31.0576 750.279 30.8315C750.274 30.748 750.295 30.6601 750.312 30.5766C750.353 30.3707 750.425 30.1662 750.433 29.9588C750.444 29.7327 750.328 29.5455 750.085 29.508C749.831 29.4692 749.689 29.5916 749.676 29.858C749.671 29.9314 749.631 30.0049 749.605 30.0769C749.393 30.6861 749.179 31.2923 748.973 31.9029C748.907 32.0974 748.947 32.3091 749.157 32.3494C749.288 32.3753 749.484 32.2774 749.586 32.1722C749.713 32.0498 749.767 31.8597 749.847 31.6985Z" fill="white"/>
</g>
<mask id="mask3_694_2437" style="mask-type:luminance" maskUnits="userSpaceOnUse" x="712" y="27" width="51" height="51">
<path d="M762.421 27.8662H712.435V77.8396H762.421V27.8662Z" fill="white"/>
</mask>
<g mask="url(#mask3_694_2437)">
<path d="M749.847 31.6985C749.765 31.8597 749.713 32.0498 749.592 32.1722C749.489 32.2774 749.293 32.3739 749.163 32.3494C748.954 32.3091 748.914 32.0974 748.979 31.9029C749.185 31.2923 749.399 30.6846 749.611 30.0769C749.637 30.0049 749.677 29.9314 749.682 29.858C749.696 29.5916 749.837 29.4692 750.091 29.508C750.334 29.5455 750.449 29.7327 750.439 29.9588C750.431 30.1662 750.359 30.3707 750.318 30.5766C750.301 30.6616 750.279 30.748 750.285 30.8315C750.301 31.0576 750.452 31.1757 750.654 31.2189C750.848 31.2607 750.959 31.1426 751.02 30.9683C751.086 30.7782 751.145 30.5852 751.217 30.398C751.286 30.2195 751.341 30.0236 751.458 29.8796C751.528 29.7917 751.719 29.7313 751.827 29.7615C751.913 29.7845 752.025 29.9746 752.008 30.0697C751.955 30.3548 751.847 30.6299 751.755 30.9078C751.704 31.0605 751.641 31.2103 751.582 31.36C751.488 31.5991 751.368 31.8324 751.307 32.0801C751.258 32.2716 751.229 32.4934 751.279 32.6777C751.396 33.1026 751.556 33.5159 751.717 33.9263C751.899 34.3915 752.094 34.8509 752.296 35.3074C752.416 35.5796 752.721 35.63 752.924 35.4111C753.006 35.3232 753.07 35.2051 753.107 35.0885C753.294 34.5024 753.482 33.9148 753.64 33.32C753.689 33.1357 753.647 32.9283 753.647 32.7008C753.503 32.7008 753.387 32.7325 753.302 32.6936C753.181 32.6388 753.029 32.551 752.99 32.443C752.957 32.3523 753.038 32.178 753.122 32.0988C753.22 32.0081 753.372 31.9548 753.509 31.9332C753.934 31.8669 754.079 31.7143 754.088 31.2765C754.091 31.1224 754.078 30.9669 754.101 30.8157C754.141 30.5521 754.32 30.3995 754.52 30.4297C754.741 30.4643 754.872 30.7005 754.829 30.9654C754.797 31.157 754.781 31.3499 754.757 31.5516C754.854 31.5688 754.892 31.5818 754.927 31.5804C755.133 31.566 755.33 31.589 755.396 31.8194C755.465 32.0614 755.331 32.2774 755.131 32.3364C754.721 32.4588 754.618 32.7656 754.427 33.0997C754.159 33.5677 754.02 34.0674 753.838 34.5556C753.748 34.7947 753.721 35.0582 753.665 35.3103C753.632 35.46 753.63 35.6285 753.555 35.7538C753.402 36.0116 753.444 36.2233 753.669 36.3817C754.049 36.651 754.192 37.0773 754.421 37.4445C754.886 38.1919 755.537 38.7262 756.279 39.1813C756.857 39.5356 757.39 39.9431 757.524 40.6862C757.62 41.2219 757.403 41.6698 757.169 42.109C756.68 43.0264 755.861 43.3835 754.857 43.3835C754.424 43.3835 753.99 43.3619 753.557 43.3619C753.021 43.3605 752.918 43.4627 752.757 43.9625C752.515 44.7113 752.322 45.4904 751.966 46.1831C751.606 46.883 751.093 47.5109 750.608 48.1402C750.062 48.8488 749.473 49.5227 748.901 50.2111C748.614 50.5553 748.322 50.8923 748.037 51.2379C747.711 51.6339 747.397 52.0415 747.067 52.4347C746.713 52.8595 746.347 53.2728 745.985 53.6919C745.265 54.5257 744.535 55.3523 743.829 56.1977C743.655 56.4065 743.499 56.6643 743.437 56.9235C743.378 57.1683 743.356 57.5168 743.488 57.6925C743.813 58.126 743.977 58.5983 743.948 59.1053C743.918 59.6295 744.16 60.0644 744.267 60.5411C744.42 61.2193 744.589 61.8933 744.777 62.5615C744.939 63.1405 745.141 63.7093 745.324 64.2825C745.4 64.5244 745.475 64.7678 745.543 65.0126C745.818 66.0005 746.092 66.9884 746.364 67.9764C746.501 68.4746 746.646 68.9729 746.763 69.477C746.852 69.8615 746.863 70.2676 746.982 70.642C747.182 71.2728 747.292 71.9468 747.786 72.4594C748.006 72.6884 748.176 72.9721 748.338 73.2501C748.515 73.5582 748.447 73.6605 748.093 73.6562C747.809 73.6519 747.557 73.6663 747.434 73.9888C747.361 74.1847 747.2 74.1271 747.073 74.045C746.896 73.9312 746.733 73.7944 746.56 73.6706C746.34 73.5136 746.134 73.4632 745.876 73.6418C745.38 73.986 744.754 73.8477 744.343 73.361C743.82 72.7388 743.49 72.0274 743.313 71.2411C743.27 71.0481 743.212 70.8479 743.224 70.6535C743.264 69.9738 742.877 69.4251 742.694 68.8145C742.426 67.9216 742.035 67.0676 741.988 66.1114C741.969 65.724 741.781 65.3482 741.717 64.9579C741.648 64.5374 741.645 64.1053 741.595 63.6805C741.55 63.3061 741.485 62.9345 741.419 62.563C741.35 62.1828 741.209 61.8055 741.206 61.4253C741.203 60.7513 741.102 60.1076 740.902 59.4667C740.801 59.1456 740.81 58.7913 740.723 58.4644C740.608 58.0209 740.486 57.5715 740.297 57.1553C740.17 56.876 739.865 56.7492 739.562 56.6556C739.085 56.5073 738.623 56.3143 738.143 56.1761C737.629 56.0292 737.106 55.8333 736.582 55.816C734.762 55.757 732.942 55.7613 731.121 55.7527C730.864 55.7512 730.683 55.8996 730.657 56.1717C730.582 56.9508 730.242 57.6464 729.925 58.3391C729.522 59.2219 729.362 60.1508 729.536 61.0696C729.692 61.8919 730.036 62.6868 730.51 63.4112C731.443 64.8369 732.35 66.2785 733.274 67.7099C733.577 68.178 733.959 68.5654 734.483 68.7972C734.937 68.9974 735.347 69.2609 735.668 69.6527C735.848 69.8716 735.814 70.0847 735.694 70.305C735.556 70.557 735.372 70.7774 735.058 70.7543C734.739 70.7299 734.422 70.6607 734.108 70.5988C733.45 70.4678 732.995 70.0012 732.652 69.5043C731.642 68.0412 730.694 66.5334 729.736 65.0342C728.901 63.7266 728.089 62.4031 727.255 61.0941C727.021 60.7268 726.755 60.3798 726.488 60.0356C726.17 59.6237 726.171 59.1715 726.34 58.7222C726.543 58.1807 726.734 57.6421 726.794 57.0632C726.796 57.0286 726.821 56.9926 726.844 56.9624C727.351 56.2682 727.197 55.4733 727.191 54.7014C727.188 54.4249 727.03 54.3039 726.76 54.3198C726.41 54.3414 726.135 54.386 725.955 54.8022C725.628 55.5626 725.228 56.2999 724.783 56.9984C724.386 57.6205 723.846 58.1505 723.452 58.7726C723.089 59.3443 722.828 59.9621 722.841 60.6908C722.875 62.6263 722.848 64.5619 722.858 66.4974C722.86 66.7494 722.927 67.0014 722.979 67.2505C723.066 67.6639 723.244 68.0772 723.24 68.4876C723.233 69.176 723.408 69.8111 723.552 70.4706C723.695 71.1259 723.872 71.7509 724.192 72.3356C724.355 72.6337 724.545 72.9188 724.712 73.2155C724.979 73.6893 724.834 74.058 724.322 74.2293C723.725 74.4295 723.149 74.2034 722.734 73.6663C722.37 73.1925 722.188 72.6654 722.092 72.085C722.03 71.7163 721.876 71.365 721.789 70.9992C721.735 70.7702 721.686 70.5254 721.709 70.2949C721.762 69.7693 721.536 69.3142 721.416 68.8289C721.335 68.5006 721.274 68.1477 721.304 67.8151C721.356 67.239 721.132 66.735 721.001 66.2036C720.938 65.9472 720.896 65.6808 720.89 65.4187C720.862 64.1701 720.834 62.9216 720.833 61.673C720.831 60.6923 720.859 59.7115 720.889 58.7308C720.911 58.0439 721.129 57.4218 721.526 56.85C721.991 56.1789 722.216 55.4301 722.096 54.6078C722.072 54.4335 721.991 54.2665 721.928 54.0994C721.534 53.0683 721.147 52.0343 720.743 51.0075C720.522 50.4415 720.326 50.3335 719.701 50.3609C719.536 50.3681 719.371 50.3465 719.209 50.3681C718.731 50.4315 718.299 49.8885 718.59 49.3557C718.843 48.892 719.146 48.4527 719.448 48.0193C719.758 47.5771 720.081 47.1408 720.425 46.7246C721.023 46.0045 721.642 45.3046 722.455 44.8035C722.8 44.5903 723.08 44.262 723.434 44.0719C724.083 43.7263 724.77 43.4555 725.429 43.133C725.929 42.8881 726.464 42.783 727.001 42.6721C727.378 42.5944 727.744 42.4575 728.123 42.387C728.467 42.3222 728.822 42.3107 729.17 42.2718C729.424 42.243 729.676 42.2041 729.929 42.1753C730.004 42.1666 730.082 42.1652 730.157 42.1724C730.769 42.2329 731.383 42.2934 731.995 42.3611C732.329 42.3985 732.661 42.4532 732.995 42.4935C733.673 42.5742 734.352 42.6635 735.032 42.7196C735.53 42.7614 736.031 42.77 736.531 42.7628C736.756 42.76 736.979 42.675 737.205 42.6332C737.78 42.5267 738.354 42.3913 738.934 42.3308C739.43 42.2804 739.938 42.2934 740.436 42.3294C740.791 42.3539 741.145 42.4388 741.488 42.5396C742.095 42.7168 742.681 42.9702 743.296 43.1027C743.666 43.1819 744.09 43.1603 744.46 43.0667C745.079 42.9097 745.681 42.6779 746.275 42.4374C746.504 42.3452 746.724 42.171 746.883 41.9794C747.236 41.5517 747.581 41.111 747.861 40.6358C748.019 40.3679 748.071 40.0252 748.114 39.7084C748.15 39.4448 748.086 39.1698 748.096 38.9019C748.114 38.3532 747.832 38.0422 747.36 37.8146C746.844 37.5669 746.332 37.3135 745.899 36.9102C745.229 36.2867 744.855 35.4932 744.496 34.6867C744.343 34.3439 744.219 33.9854 744.127 33.621C744.042 33.2855 744.121 32.9485 744.385 32.7123C744.641 32.4819 744.973 32.3523 745.308 32.4948C745.758 32.6864 746.201 32.9053 746.613 33.1645C747.118 33.4828 747.593 33.8471 748.071 34.2057C748.502 34.5297 748.822 34.9329 748.859 35.5018C748.865 35.5882 748.879 35.6746 748.897 35.7581C749.013 36.35 749.334 36.5876 749.929 36.4811C750.275 36.4177 750.612 36.3011 750.954 36.2074C751.147 36.1542 751.206 36.0332 751.22 35.8273C751.281 34.9862 750.876 34.2604 750.66 33.49C750.526 33.0118 750.333 32.5496 750.156 32.083C750.101 31.939 750.014 31.8079 749.942 31.6711C749.908 31.6797 749.878 31.6884 749.847 31.6985Z" fill="#050A4C"/>
</g>
</g>
<defs>
<linearGradient id="paint0_linear_694_2437" x1="-3.89702" y1="28.0349" x2="202.344" y2="79.8446" gradientUnits="userSpaceOnUse">
<stop stop-color="#2417AF"/>
<stop offset="1" stop-color="#05056B"/>
</linearGradient>
<linearGradient id="paint1_linear_694_2437" x1="-3.89702" y1="54.1011" x2="202.344" y2="105.911" gradientUnits="userSpaceOnUse">
<stop stop-color="#2417AF"/>
<stop offset="1" stop-color="#0D0A88"/>
</linearGradient>
<linearGradient id="paint2_linear_694_2437" x1="277.999" y1="152.967" x2="894.982" y2="-2.02398" gradientUnits="userSpaceOnUse">
<stop stop-color="#1694E9"/>
<stop offset="0.9987" stop-color="#1AD6D6"/>
</linearGradient>
</defs>
</svg>
