<?xml version="1.0" encoding="iso-8859-1"?>
<!-- Uploaded to: SVG Repo, www.svgrepo.com, Generator: SVG Repo Mixer Tools -->
<svg height="800px" width="800px" version="1.1" id="Layer_1" xmlns="http://www.w3.org/2000/svg" xmlns:xlink="http://www.w3.org/1999/xlink" 
	 viewBox="0 0 512.003 512.003" xml:space="preserve">
<g>
	<path style="fill:#D8143A;" d="M214.952,68.97c-18.228,0-33.006,14.778-33.006,33.006s14.778,33.006,33.006,33.006h264.045
		c18.228,0,33.006-14.778,33.006-33.006S497.225,68.97,478.997,68.97C478.997,68.97,214.952,68.97,214.952,68.97z"/>
	<path style="fill:#D8143A;" d="M478.997,222.996H214.952c-18.228,0-33.006,14.778-33.006,33.006
		c0,18.228,14.778,33.006,33.006,33.006h264.045c18.228,0,33.006-14.778,33.006-33.006S497.225,222.996,478.997,222.996z"/>
	<path style="fill:#D8143A;" d="M478.997,377.022H214.952c-18.228,0-33.006,14.778-33.006,33.006
		c0,18.228,14.778,33.006,33.006,33.006h264.045c18.228,0,33.006-14.778,33.006-33.006
		C512.003,391.799,497.225,377.022,478.997,377.022z"/>
</g>
<g>
	<path style="fill:#830018;" d="M120.671,240.971c-1.941-5.974-7.105-10.329-13.323-11.231l-21.98-3.195l-9.829-19.918
		c-2.781-5.633-8.515-9.2-14.8-9.2c-6.28,0-12.018,3.567-14.8,9.2l-9.831,19.918l-21.977,3.195
		c-6.216,0.904-11.383,5.257-13.323,11.231c-1.941,5.974-0.321,12.531,4.174,16.916l15.904,15.502l-3.756,21.894
		c-1.063,6.19,1.483,12.448,6.564,16.14c2.876,2.09,6.278,3.153,9.701,3.153c2.625,0,5.263-0.627,7.677-1.895l19.663-10.337
		l19.663,10.337c2.416,1.27,5.052,1.895,7.677,1.895c0.015,0,0.033,0,0.046,0c9.114-0.002,16.501-7.389,16.501-16.503
		c0-1.384-0.169-2.731-0.491-4.016l-3.547-20.668l15.904-15.502C120.992,253.502,122.612,246.945,120.671,240.971z"/>
	<path style="fill:#830018;" d="M120.671,86.945c-1.941-5.974-7.105-10.329-13.323-11.231l-21.98-3.195l-9.829-19.918
		c-2.781-5.633-8.515-9.2-14.8-9.2c-6.28,0-12.018,3.567-14.8,9.2l-9.831,19.918l-21.977,3.195
		C7.915,76.618,2.749,80.971,0.808,86.945c-1.941,5.974-0.321,12.531,4.174,16.916l15.904,15.502l-3.756,21.894
		c-1.063,6.19,1.483,12.447,6.564,16.14c2.876,2.09,6.278,3.153,9.701,3.153c2.625,0,5.263-0.627,7.677-1.895l19.663-10.337
		l19.663,10.337c2.416,1.27,5.052,1.895,7.677,1.895c0.015,0,0.033,0,0.046,0c9.114,0,16.501-7.389,16.501-16.503
		c0-1.384-0.169-2.731-0.491-4.016l-3.547-20.668l15.904-15.502C120.992,99.476,122.612,92.919,120.671,86.945z"/>
	<path style="fill:#830018;" d="M120.671,394.997c-1.941-5.974-7.105-10.329-13.323-11.231l-21.98-3.195l-9.829-19.918
		c-2.781-5.633-8.515-9.2-14.8-9.2c-6.28,0-12.018,3.567-14.8,9.2l-9.831,19.918l-21.977,3.195
		c-6.216,0.902-11.383,5.257-13.323,11.231s-0.321,12.531,4.174,16.916l15.904,15.502l-3.756,21.892
		c-1.063,6.192,1.483,12.45,6.564,16.142c2.876,2.09,6.278,3.153,9.701,3.153c2.625,0,5.263-0.627,7.677-1.895l19.663-10.337
		l19.663,10.337c2.416,1.27,5.052,1.895,7.677,1.895c0.015,0,0.033,0,0.046,0c9.114-0.002,16.501-7.389,16.501-16.503
		c0-1.384-0.169-2.731-0.491-4.016l-3.547-20.668l15.904-15.502C120.992,407.528,122.612,400.971,120.671,394.997z"/>
</g>
</svg>